<svg xmlns="http://www.w3.org/2000/svg" xmlns:xlink="http://www.w3.org/1999/xlink" width="40" height="28" viewBox="0 0 40 28">
  <defs>
    <path id="car@3x-a" d="M34,10 L33,10 L26.200625,1.50124995 L26.200625,1.50125 C25.441675,0.5524 24.2925375,0 23.0775,0 L9.708125,0 C8.0725,0 6.601875,0.995625 5.994375,2.514375 L3,10 L3,10.14125 C1.2775,10.5875 0,12.138125 0,14 L0,21 C0,21.5525 0.4475,22 1,22 L4,22 C4,25.31375 6.68625,28 10,28 C13.31375,28 16,25.31375 16,22 L24,22 C24,25.31375 26.68625,28 30,28 C33.31375,28 36,25.31375 36,22 L39,22 C39.5525,22 40,21.5525 40,21 L40,16 C40,12.68625 37.31375,10 34,10 L34,10 Z M17.5,2.99999995 L23.0775,2.99999995 C23.383125,2.99999995 23.6675,3.13687495 23.858125,3.37499995 L29.158125,9.99999995 L17.5,9.99999995 L17.5,2.99999995 Z M8.77937496,3.62874995 C8.93249996,3.24687495 9.29687496,2.99999995 9.70812496,2.99999995 L14.5,2.99999995 L14.5,9.99999995 L6.23124996,9.99999995 L8.77937496,3.62874995 Z M9.99999996,25 C8.34312496,25 6.99999996,23.656875 6.99999996,22 C6.99999996,20.343125 8.34312496,19 9.99999996,19 C11.656875,19 13,20.343125 13,22 C13,23.656875 11.656875,25 9.99999996,25 Z M30,25 C28.343125,25 27,23.656875 27,22 C27,20.343125 28.343125,19 30,19 C31.656875,19 33,20.343125 33,22 C33,23.656875 31.656875,25 30,25 Z M37,19 L35.168125,19 C34.12875,17.214375 32.215625,16 30,16 C27.784375,16 25.871875,17.214375 24.831875,19 L15.168125,19 C14.12875,17.214375 12.215625,16 9.99999996,16 C7.78437496,16 5.87187496,17.214375 4.83187496,19 L2.99999996,19 L2.99999996,14 C2.99999996,13.44875 3.44874996,13 3.99999996,13 L34,13 C35.654375,13 37,14.345625 37,16 L37,19 Z"/>
  </defs>
  <g fill="none" fill-rule="evenodd">
    <mask id="car@3x-b" fill="#fff">
      <use xlink:href="#car@3x-a"/>
    </mask>
    <use fill="#000" fill-rule="nonzero" xlink:href="#car@3x-a"/>
    <g fill="#FF0" mask="url(#car@3x-b)">
      <rect width="40" height="40" transform="translate(0 -6)"/>
    </g>
  </g>
</svg>
