<svg id="Layer_1" data-name="Layer 1" xmlns="http://www.w3.org/2000/svg" viewBox="0 0 20 32"><defs><style>.cls-1{fill:#e94335;}.cls-2{fill:none;}.cls-3{fill:#fff;}</style></defs><path class="cls-1" d="M20,10c0,5.52-7,22-10,22C7.33,32,0,15.52,0,10a10,10,0,0,1,20,0Z"/><rect class="cls-2" x="2" y="2" width="16" height="16"/><path class="cls-3" d="M14.67,10A4.67,4.67,0,1,1,10,5.33,4.67,4.67,0,0,1,14.67,10ZM10.5,7.83a.5.5,0,1,0-1,0v2.34a.5.5,0,1,0,1,0ZM10,12.67A.67.67,0,1,0,9.33,12,.67.67,0,0,0,10,12.67ZM4.33,10a5.62,5.62,0,0,0,.9,3.08.5.5,0,0,1-.15.69.49.49,0,0,1-.69-.16,6.63,6.63,0,0,1,0-7.19.49.49,0,0,1,.69-.15.48.48,0,0,1,.15.67A5.71,5.71,0,0,0,4.33,10Zm12.34,0a6.57,6.57,0,0,1-1.06,3.61.49.49,0,0,1-.69.16.5.5,0,0,1-.15-.69,5.62,5.62,0,0,0,.9-3.08,5.71,5.71,0,0,0-.9-3.06.48.48,0,0,1,.15-.67.49.49,0,0,1,.69.15A6.6,6.6,0,0,1,16.67,10Z"/></svg>