<svg xmlns="http://www.w3.org/2000/svg" xmlns:xlink="http://www.w3.org/1999/xlink" width="40" height="40" viewBox="0 0 40 40">
  <defs>
    <path id="hgv@3x-a" d="M2,23 L23,23 C24.10625,23 25,22.10625 25,21 L25,8 C25,6.89375 24.10625,6 23,6 L2,6 C0.89375,6 0,6.89375 0,8 L0,21 C0,22.10625 0.89375,23 2,23 Z M3,9 L22,9 L22,20 L3,20 L3,9 Z M38.83125,16.83125 L35.175,13.175 C34.425,12.425 33.40625,12.00625 32.34375,12.00625 L29,12.00625 C27.89375,12.00625 27,12.9 27,14.00625 L27,25.00625 L2,25.00625 C0.89375,25.00625 0,25.9 0,27.00625 L0,28.74375 C0,31.29375 1.79375,33.625 4.31875,33.9625 C6.2375,34.21875 7.9625,33.36875 9,31.98125 C10.15,33.525 12.15,34.4 14.33125,33.8375 C15.90625,33.43125 17.2125,32.2 17.73125,30.6625 C18.0375,29.7375 18.06875,28.8375 17.90625,28.0125 L28.10625,28.0125 C27.9375,28.8375 27.96875,29.7375 28.28125,30.6625 C28.80625,32.23125 30.15,33.46875 31.75625,33.85625 C35.05625,34.65625 38.00625,32.175 38.00625,29.00625 C38.00625,28.6625 37.96875,28.33125 37.90625,28.00625 L39,28.00625 C39.55,28.00625 40,27.55625 40,27.00625 L40,19.65625 C40,18.59375 39.58125,17.58125 38.83125,16.83125 Z M5,31 C3.9,31 3,30.1 3,29 C3,27.9 3.9,27 5,27 C6.1,27 7,27.9 7,29 C7,30.1 6.1,31 5,31 Z M13,31 C11.9,31 11,30.1 11,29 C11,27.9 11.9,27 13,27 C14.1,27 15,27.9 15,29 C15,30.1 14.1,31 13,31 Z M30,15 L32.34375,15 C32.6125,15 32.8625,15.10625 33.05,15.29375 L35.75625,18 L30,18 L30,15 L30,15 Z M33,31 C31.9,31 31,30.1 31,29 C31,27.9 31.9,27 33,27 C34.1,27 35,27.9 35,29 C35,30.1 34.1,31 33,31 Z M37,25 L35.975,25 C35.14375,24.38125 34.11875,24 33,24 C31.88125,24 30.8625,24.38125 30.025,25 L30,25 L30,20 L37,20 L37,25 Z M8.5,11 L6.5,11 C6.225,11 6,11.225 6,11.5 L6,17.5 C6,17.775 6.225,18 6.5,18 L8.5,18 C8.775,18 9,17.775 9,17.5 L9,11.5 C9,11.225 8.775,11 8.5,11 Z M18.5,11 L16.5,11 C16.225,11 16,11.225 16,11.5 L16,17.5 C16,17.775 16.225,18 16.5,18 L18.5,18 C18.775,18 19,17.775 19,17.5 L19,11.5 C19,11.225 18.775,11 18.5,11 Z M13.5,11 L11.5,11 C11.225,11 11,11.225 11,11.5 L11,17.5 C11,17.775 11.225,18 11.5,18 L13.5,18 C13.775,18 14,17.775 14,17.5 L14,11.5 C14,11.225 13.775,11 13.5,11 Z"/>
  </defs>
  <g fill="none" fill-rule="evenodd">
    <mask id="hgv@3x-b" fill="#fff">
      <use xlink:href="#hgv@3x-a"/>
    </mask>
    <use fill="#000" fill-rule="nonzero" xlink:href="#hgv@3x-a"/>
    <g fill="#0F0" mask="url(#hgv@3x-b)">
      <rect width="40" height="40"/>
    </g>
  </g>
</svg>
