<?xml version="1.0" standalone="no"?>
<!DOCTYPE svg PUBLIC "-//W3C//DTD SVG 1.1//EN" "http://www.w3.org/Graphics/SVG/1.1/DTD/svg11.dtd" >
<svg xmlns="http://www.w3.org/2000/svg">
<metadata>Generated by IcoMoon</metadata>
<defs>
<font id="jobviewer" horiz-adv-x="1024">
<font-face units-per-em="1024" ascent="960" descent="-64" />
<missing-glyph horiz-adv-x="1024" />
<glyph unicode="&#x20;" horiz-adv-x="512" d="" />
<glyph unicode="&#x267b;" glyph-name="dustbin" d="M656 96h32c9.6 0 16 6.4 16 16v544c0 9.6-6.4 16-16 16h-32c-9.6 0-16-6.4-16-16v0-544c0-9.6 6.4-16 16-16zM336 96h32c9.6 0 16 6.4 16 16v544c0 9.6-6.4 16-16 16h-32c-9.6 0-16-6.4-16-16v0-544c0-9.6 6.4-16 16-16zM944 832h-208l-67.2 89.6c-19.2 25.6-48 38.4-76.8 38.4h-160c-28.8 0-57.6-12.8-76.8-38.4l-67.2-89.6h-208c-9.6 0-16-6.4-16-16v0-32c0-9.6 6.4-16 16-16h48v-736c0-54.4 41.6-96 96-96h576c54.4 0 96 41.6 96 96v736h48c9.6 0 16 6.4 16 16v32c0 9.6-6.4 16-16 16zM406.4 883.2v0c6.4 9.6 16 12.8 25.6 12.8h160c9.6 0 19.2-3.2 25.6-12.8l38.4-51.2h-288l38.4 51.2zM832 32v0c0-19.2-12.8-32-32-32h-576c-19.2 0-32 12.8-32 32v0 736h640v-736zM496 96h32c9.6 0 16 6.4 16 16v544c0 9.6-6.4 16-16 16h-32c-9.6 0-16-6.4-16-16v0-544c0-9.6 6.4-16 16-16z" />
<glyph unicode="&#x26a0;" glyph-name="error" d="M480 617.6h64c6.4 0 9.6-6.4 9.6-9.6l-12.8-348.8c0-6.4-6.4-9.6-9.6-9.6h-35.2c-6.4 0-9.6 3.2-9.6 9.6l-16 348.8c0 6.4 3.2 9.6 9.6 9.6zM512 214.4c-28.8 0-51.2-22.4-51.2-51.2s22.4-51.2 51.2-51.2c28.8 0 51.2 22.4 51.2 51.2s-22.4 51.2-51.2 51.2zM1011.2 121.6l-425.6 739.2c-32 57.6-115.2 57.6-147.2 0l-425.6-739.2c-32-57.6 9.6-128 73.6-128h854.4c64 0 105.6 70.4 70.4 128zM937.6 51.2h-851.2c-22.4 0-35.2 22.4-25.6 41.6l425.6 739.2c9.6 19.2 38.4 19.2 48 0l425.6-739.2c12.8-19.2 0-41.6-22.4-41.6z" />
<glyph unicode="&#x2715;" glyph-name="close" d="M579.2 448l246.4 246.4c6.4 6.4 6.4 16 0 22.4l-44.8 44.8c-6.4 6.4-16 6.4-22.4 0l-246.4-246.4-246.4 249.6c-6.4 3.2-16 3.2-22.4 0l-48-48c-3.2-6.4-3.2-16 0-22.4l246.4-246.4-246.4-246.4c-6.4-6.4-6.4-16 0-22.4l44.8-44.8c6.4-6.4 16-6.4 22.4 0l246.4 246.4 246.4-246.4c6.4-6.4 16-6.4 22.4 0l44.8 44.8c6.4 6.4 6.4 16 0 22.4l-243.2 246.4z" />
<glyph unicode="&#x2795;" glyph-name="plus" d="M880 496h-320v320c0 9.6-6.4 16-16 16h-64c-9.6 0-16-6.4-16-16v-320h-320c-9.6 0-16-6.4-16-16v-64c0-9.6 6.4-16 16-16h320v-320c0-9.6 6.4-16 16-16h64c9.6 0 16 6.4 16 16v320h320c9.6 0 16 6.4 16 16v64c0 9.6-6.4 16-16 16z" />
<glyph unicode="&#xe900;" glyph-name="download" d="M902.4 96c0-22.4-19.2-38.4-38.4-38.4s-38.4 19.2-38.4 38.4 19.2 38.4 38.4 38.4 38.4-16 38.4-38.4zM736 134.4c-22.4 0-38.4-19.2-38.4-38.4s19.2-38.4 38.4-38.4 38.4 19.2 38.4 38.4-16 38.4-38.4 38.4zM1024 230.4v-208c0-48-38.4-89.6-89.6-89.6h-844.8c-51.2 3.2-89.6 41.6-89.6 92.8v208c0 48 38.4 86.4 89.6 86.4h198.4l-112 112c-51.2 51.2-16 137.6 57.6 137.6h105.6v310.4c-3.2 44.8 32 80 76.8 80h192c44.8 0 80-35.2 80-80v-310.4h105.6c70.4 0 105.6-86.4 57.6-137.6l-115.2-112h198.4c51.2 0 89.6-38.4 89.6-89.6zM499.2 195.2c6.4-6.4 16-6.4 22.4 0l281.6 281.6c9.6 9.6 3.2 28.8-12.8 28.8h-169.6v374.4c3.2 9.6-3.2 16-12.8 16h-192c-9.6 0-16-6.4-16-16v-374.4h-169.6c-12.8 0-22.4-16-12.8-28.8 0 0 281.6-281.6 281.6-281.6zM960 230.4c0 12.8-9.6 25.6-25.6 25.6h-262.4l-105.6-105.6c-32-32-83.2-32-112 0l-102.4 105.6h-262.4c-16 0-25.6-9.6-25.6-25.6v-208c0-12.8 9.6-22.4 25.6-22.4h848c12.8 0 25.6 9.6 25.6 25.6v204.8z" />
<glyph unicode="&#xe901;" glyph-name="dashboard-app" d="M937.6 902.4h-851.2c-48 0-86.4-38.4-86.4-83.2v-512c0-48 38.4-86.4 86.4-86.4h342.4l-44.8-169.6h-128c-16 0-28.8-12.8-28.8-28.8s12.8-28.8 28.8-28.8h512c16 0 28.8 12.8 28.8 28.8s-12.8 28.8-28.8 28.8h-128l-41.6 169.6h342.4c48 0 86.4 38.4 86.4 86.4v512c-3.2 44.8-41.6 83.2-89.6 83.2zM441.6 51.2l28.8 115.2h83.2l28.8-115.2h-140.8zM966.4 307.2c0-16-12.8-28.8-28.8-28.8h-851.2c-16 0-28.8 12.8-28.8 28.8v512c0 16 12.8 28.8 28.8 28.8h854.4c16 0 28.8-12.8 28.8-28.8v-512h-3.2zM870.4 332.8h-716.8c-16 0-28.8 12.8-28.8 28.8v412.8c0 16 12.8 28.8 28.8 28.8s28.8-12.8 28.8-28.8v-384h691.2c16 0 28.8-12.8 28.8-28.8s-16-28.8-32-28.8zM259.2 451.2c-6.4 0-16 3.2-19.2 9.6-12.8 12.8-12.8 28.8 0 41.6l137.6 137.6c12.8 12.8 28.8 12.8 41.6 0l70.4-70.4 169.6 166.4c6.4 6.4 12.8 9.6 22.4 9.6 6.4 0 16-3.2 19.2-9.6l86.4-92.8c9.6-12.8 9.6-28.8 0-41.6-12.8-9.6-28.8-9.6-41.6 0l-64 70.4-169.6-169.6c-12.8-12.8-28.8-12.8-41.6 0l-73.6 73.6-118.4-118.4c-3.2-3.2-12.8-6.4-19.2-6.4z" />
<glyph unicode="&#xe902;" glyph-name="chevron-square-down" d="M864 896h-704c-54.4 0-96-41.6-96-96v-704c0-54.4 41.6-96 96-96h704c54.4 0 96 41.6 96 96v704c0 54.4-41.6 96-96 96zM896 96c0-16-16-32-32-32h-704c-19.2 0-32 16-32 32v704c0 19.2 12.8 32 32 32h704c16 0 32-12.8 32-32v-704zM496 288l-230.4 230.4c-9.6 9.6-9.6 25.6 0 35.2l12.8 12.8c9.6 9.6 25.6 9.6 35.2 0l198.4-198.4 198.4 198.4c9.6 9.6 25.6 9.6 35.2 0l12.8-12.8c9.6-9.6 9.6-25.6 0-35.2l-230.4-230.4c-9.6-9.6-22.4-9.6-32 0z" />
<glyph unicode="&#xe903;" glyph-name="tools" d="M1004.8 182.4l-249.6 249.6c-32 32-73.6 48-112 48-32 0-60.8-9.6-89.6-25.6l-169.6 166.4v147.2l-256 192-128-128 192-256h147.2l169.6-169.6c-41.6-60.8-35.2-147.2 19.2-201.6l249.6-249.6c12.8-12.8 28.8-19.2 44.8-19.2s32 6.4 44.8 19.2l134.4 134.4c28.8 25.6 28.8 67.2 3.2 92.8zM320 643.2v-3.2h-96l-140.8 185.6 48 48 188.8-137.6v-92.8zM825.6 0l-249.6 249.6c-19.2 19.2-28.8 41.6-28.8 67.2s9.6 51.2 28.8 67.2c19.2 19.2 41.6 28.8 67.2 28.8s51.2-9.6 67.2-28.8l249.6-249.6-134.4-134.4zM128 96c0-16 12.8-32 32-32s32 16 32 32-12.8 32-32 32-32-16-32-32zM553.6 825.6c44.8 44.8 105.6 70.4 166.4 70.4 12.8 0 28.8 0 41.6-3.2l-137.6-137.6 28.8-166.4 166.4-28.8 137.6 137.6c12.8-76.8-9.6-153.6-67.2-208-19.2-19.2-38.4-32-60.8-41.6l48-48c19.2 12.8 41.6 28.8 57.6 44.8 76.8 76.8 105.6 182.4 80 288-3.2 19.2-19.2 35.2-38.4 38.4-19.2 6.4-38.4 0-54.4-12.8l-128-128-89.6 16-16 89.6 128 128c12.8 12.8 19.2 35.2 12.8 54.4s-19.2 32-38.4 38.4c-102.4 25.6-211.2-3.2-284.8-80-25.6-25.6-44.8-54.4-60.8-89.6v-134.4l44.8-44.8c-16 76.8 6.4 160 64 217.6zM214.4 25.6c-32-32-89.6-32-124.8 0-35.2 35.2-35.2 89.6 0 124.8l291.2 291.2-44.8 44.8-291.2-291.2c-60.8-60.8-60.8-156.8 0-214.4 28.8-28.8 67.2-44.8 105.6-44.8s80 16 108.8 44.8l204.8 204.8c-12.8 19.2-22.4 38.4-32 60.8 0-3.2-217.6-220.8-217.6-220.8z" />
<glyph unicode="&#xe904;" glyph-name="comment" d="M779.947 642.279v0c0-9.112-7.386-16.498-16.498-16.498 0 0 0 0 0 0h-502.898c-9.112 0-16.498 7.386-16.498 16.498s7.386 16.498 16.498 16.498h502.898c9.112 0 16.498-7.386 16.498-16.498zM763.449 518.83h-502.898c-9.112 0-16.498-7.386-16.498-16.498s7.386-16.498 16.498-16.498c0 0 0 0 0 0h502.898c9.112 0 16.498 7.386 16.498 16.498s-7.386 16.498-16.498 16.498c0 0 0 0 0 0zM615.538 378.883h-354.987c-9.112 0-16.498-7.386-16.498-16.498s7.386-16.498 16.498-16.498h354.987c9.112 0 16.498 7.386 16.498 16.498s-7.386 16.498-16.498 16.498zM1024 490.385c0-239.503-229.831-434.632-512.001-434.632v0c-41.485 0.19-82.845 4.574-123.449 13.084l-288.427-96.142c-3.299-1.119-6.757-1.695-10.24-1.707v0c-9.058-0.139-17.747 3.585-23.893 10.24v0c-8.756 9.316-11.208 22.914-6.258 34.702l73.956 180.907c-86.471 80.782-133.689 184.32-133.689 293.547 0 239.503 229.831 434.632 512.001 434.632s512.001-195.129 512.001-434.632zM958.578 490.385c0 203.094-200.249 368.64-446.578 368.64s-446.578-164.978-446.578-368.64c0-97.28 45.511-189.44 128.569-258.845v0c10.956-9.155 14.649-24.391 9.102-37.547l-55.182-135.965 228.694 76.231c5.7 1.89 11.826 2.088 17.636 0.569v0c38.615-8.963 78.118-13.543 117.76-13.653 246.329 0.569 446.578 166.116 446.578 369.209z" />
<glyph unicode="&#xe905;" glyph-name="settings" d="M384 624v96c0 25.6-22.4 48-48 48h-80v176c0 9.6-6.4 16-16 16h-32c-9.6 0-16-6.4-16-16v-176h-80c-25.6 0-48-22.4-48-48v-96c0-25.6 22.4-48 48-48h80v-624c0-9.6 6.4-16 16-16h32c9.6 0 16 6.4 16 16v624h80c25.6 0 48 22.4 48 48zM320 640h-192v64h192v-64zM624 320h-80v624c0 9.6-6.4 16-16 16h-32c-9.6 0-16-6.4-16-16v-624h-80c-25.6 0-48-22.4-48-48v-96c0-25.6 22.4-48 48-48h80v-176c0-9.6 6.4-16 16-16h32c9.6 0 16 6.4 16 16v176h80c25.6 0 48 22.4 48 48v96c0 25.6-22.4 48-48 48zM608 192h-192v64h192v-64zM912 640h-80v304c0 9.6-6.4 16-16 16h-32c-9.6 0-16-6.4-16-16v-304h-80c-25.6 0-48-22.4-48-48v-96c0-25.6 22.4-48 48-48h80v-496c0-9.6 6.4-16 16-16h32c9.6 0 16 6.4 16 16v496h80c25.6 0 48 22.4 48 48v96c0 25.6-22.4 48-48 48zM896 512h-192v64h192v-64z" />
<glyph unicode="&#xe906;" glyph-name="chats" d="M908.8 617.6h-169.6v172.8c0 64-51.2 115.2-115.2 115.2h-512c-60.8-3.2-112-54.4-112-115.2v-284.8c0-64 51.2-115.2 115.2-115.2h57.6v-92.8c0-12.8 9.6-22.4 22.4-22.4 3.2 0 9.6 0 12.8 3.2l137.6 76.8v-137.6c0-64 51.2-115.2 115.2-115.2h169.6l195.2-108.8c3.2-3.2 9.6-3.2 12.8-3.2 9.6 0 22.4 9.6 22.4 22.4v92.8h57.6c64 0 115.2 51.2 115.2 115.2v284.8c-9.6 60.8-60.8 112-124.8 112zM115.2 448c-32 0-57.6 25.6-57.6 57.6v284.8c0 32 25.6 57.6 57.6 57.6h512c32 0 57.6-25.6 57.6-57.6v-284.8c0-32-25.6-57.6-57.6-57.6h-243.2l-12.8-6.4-144-80v86.4h-112zM966.4 220.8c0-32-25.6-57.6-57.6-57.6h-115.2v-89.6l-144 80-9.6 9.6h-185.6c-32 0-57.6 25.6-57.6 57.6v169.6h227.2c64 0 115.2 51.2 115.2 115.2v57.6h169.6c32 0 57.6-25.6 57.6-57.6v-284.8z" />
<glyph unicode="&#xe907;" glyph-name="chat" d="M896 960h-768c-70.4 0-128-57.6-128-128v-576c0-70.4 57.6-128 128-128h192v-166.4c0-12.8 12.8-25.6 25.6-25.6 3.2 0 9.6 0 12.8 3.2l249.6 188.8h288c70.4 0 128 57.6 128 128v576c0 70.4-57.6 128-128 128zM960 256c0-35.2-28.8-64-64-64h-310.4l-16-12.8-185.6-140.8v153.6h-256c-35.2 0-64 28.8-64 64v576c0 35.2 28.8 64 64 64h768c35.2 0 64-28.8 64-64v-576zM560 480h-288c-9.6 0-16-6.4-16-16v-32c0-9.6 6.4-16 16-16h288c9.6 0 16 6.4 16 16v32c0 9.6-6.4 16-16 16zM752 672h-480c-9.6 0-16-6.4-16-16v-32c0-9.6 6.4-16 16-16h480c9.6 0 16 6.4 16 16v32c0 9.6-6.4 16-16 16z" />
<glyph unicode="&#xe908;" glyph-name="water" d="M768 627.839c-70.507 0-107.413 23.147-140.053 43.627s-58.667 36.587-115.947 36.587-84.48-16.96-115.84-36.693-69.653-43.52-140.16-43.52-107.413 22.827-140.053 43.627-58.453 36.587-115.947 36.587v45.44c70.507 0 107.413-23.147 140.053-43.627s58.56-36.587 115.947-36.587 84.48 16.96 115.84 36.693 69.547 43.52 140.16 43.52 107.413-23.147 140.053-43.627 58.347-36.587 115.947-36.587 84.587 16.96 115.947 36.693 69.333 43.52 140.053 43.52v-45.44c-57.493 0-84.587-16.96-115.947-36.693s-69.76-43.52-140.053-43.52zM768 385.172c-70.507 0-107.52 23.147-140.053 43.627s-58.667 36.693-115.947 36.693-84.693-17.493-116.053-36.693-69.44-43.627-139.947-43.627-107.413 23.147-140.053 43.627-58.453 36.693-115.947 36.693v45.44c70.507 0 107.52-23.147 140.053-43.627s58.56-36.8 115.947-36.8 84.48 17.493 115.84 36.693 69.547 43.733 140.16 43.733 107.52-23.147 140.053-43.627 58.347-36.8 115.947-36.8 84.373 17.493 115.733 36.693 69.547 43.733 140.267 43.733v-45.44c-57.493 0-84.587-17.067-115.947-36.693s-69.76-43.627-140.053-43.627zM768 142.506c-70.507 0-107.52 23.147-140.053 43.627s-58.667 36.693-115.947 36.693-84.48-17.067-115.84-36.693-69.653-43.627-140.16-43.627-107.413 23.147-140.053 43.627-58.453 36.693-115.947 36.693v45.44c70.507 0 107.52-23.253 140.053-43.627s58.56-36.693 115.947-36.693 84.48 16.96 115.84 36.693 69.547 43.627 140.16 43.627 107.307-22.933 139.947-43.627 58.453-36.693 116.053-36.693 84.48 16.96 115.84 36.693 69.44 43.627 140.16 43.627v-45.44c-57.493 0-84.587-17.067-115.947-36.693s-69.76-43.627-140.053-43.627z" />
<glyph unicode="&#xe909;" glyph-name="fish" d="M1019.982 436.086c-39.621 40.487-83.821 76.224-131.837 106.451-5.030 2.958-6.379 5.146-6.379 7.649 0 1.084 0.253 2.109 0.703 3.019 18.65 45.463 35.326 99.775 47.212 155.856 1.324 7.326 1.43 8.374 1.43 9.446 0 7.856-5.695 14.382-13.182 15.674-2.659 0.714-5.603 1.117-8.64 1.117-3.714 0-7.288-0.602-10.628-1.712-3.906-1.355-7.495-3.339-10.661-5.834-35.87-27.138-67.157-57.567-94.345-91.428-33.261-43.339-45.922-82.185-39.645-116.486l-58.756-17.854-16.231 52.913c-2.259 2.737-5.652 4.469-9.451 4.469-6.421 0-11.687-4.95-12.188-11.243l16.228-52.956-59.081-18.179-26.51 86.565c-2.259 2.737-5.652 4.469-9.451 4.469-6.421 0-11.687-4.95-12.188-11.243l26.508-86.609-61.029-18.719-41.335 131.363c-2.259 2.737-5.652 4.469-9.451 4.469-6.421 0-11.687-4.95-12.188-11.243l40.034-131.406-62.76-19.261-50.425 163.175c-2.259 2.737-5.652 4.469-9.451 4.469-6.421 0-11.687-4.95-12.188-11.243l50.313-163.76-60.92-18.719-50.749 164.149c-2.259 2.737-5.652 4.469-9.451 4.469-6.421 0-11.687-4.95-12.188-11.243l50.313-163.76-60.163-18.503c-15.781 50.295-43.731 92.958-80.47 126.054-3.389 3.145-6.419 5.85-9.125 8.447-5.531 5.037-12.917 8.122-21.023 8.122-0.217 0-0.434-0.002-0.65-0.007-9.046-0.098-17.365-3.262-23.962-8.502-84.969-67.675-126.305-158.028-143.401-206.613-1.659-4.185-2.62-9.033-2.62-14.105 0-13.277 6.587-25.015 16.671-32.124l12.135-9.173c33.115-28.518 71.997-51.476 114.516-66.821l11.761-3.622 10.821-3.246h1.948c19.001-5.22 41.608-9.346 64.773-11.557 4.052-0.402 6.817-0.557 9.618-0.557 12.95 0 25.123 3.325 35.711 9.17 4.214 3.581 7.674 8.579 9.512 14.304 8.285 34.304 19.105 105.612-1.562 174.54l59.946 18.395 50.316-163.717c2.259-2.737 5.652-4.469 9.451-4.469 6.421 0 11.687 4.95 12.188 11.243l-49.881 163.76 60.92 18.719 50.857-163.609c2.259-2.737 5.652-4.469 9.451-4.469 6.421 0 11.687 4.95 12.188 11.243l-50.313 163.651 62.76 19.261 41.66-136.34c2.259-2.737 5.652-4.469 9.451-4.469 6.421 0 11.687 4.95 12.188 11.243l-41.224 136.492 61.029 18.719 26.51-86.565c2.259-2.737 5.652-4.469 9.451-4.469 6.421 0 11.687 4.95 12.188 11.243l-26.508 86.609 59.081 18.179 16.664-53.129c2.259-2.737 5.652-4.469 9.451-4.469 6.421 0 11.687 4.95 12.188 11.243l-16.228 52.956 57.674 17.746c14.392-41.443 43.283-69.36 89.811-84.942 40.144-13.525 84.401-14.933 120.001-16.015 8.332 0 16.231 0 23.157-0.865 0.475-0.022 1.031-0.034 1.59-0.034 3.875 0 7.609 0.607 11.111 1.73 5.987 1.809 11.294 5.226 15.407 9.748 3.424 2.98 5.561 7.31 5.561 12.139 0 4.079-1.525 7.802-4.035 10.629zM198.368 360.559c-0.666-0.146-1.432-0.23-2.219-0.23s-1.551 0.084-2.29 0.242l-31.309 3.991-2.056-31.921c-0.417-4.378-3.387-7.967-7.39-9.284-0.662-0.141-1.335-0.21-2.024-0.21s-1.362 0.069-2.013 0.199c-5.437 0.547-9.696 5.154-9.696 10.758 0 0.247 0.008 0.492 0.024 0.734l2.595 32.43-32.462 4.112c-3.869 1.706-6.522 5.508-6.522 9.93 0 5.259 3.752 9.642 8.725 10.618l31.449-3.993 2.488 31.597c0.463 5.611 5.13 9.989 10.821 9.989 5.995 0 10.855-4.86 10.855-10.855 0-0.304-0.012-0.607-0.038-0.905l-2.594-32.422 32.462-4.004c4.872-1.122 8.45-5.422 8.45-10.558 0-4.7-2.997-8.701-7.184-10.194zM1000.287 420.938c-0.991-1.069-2.404-1.737-3.973-1.737-0.087 0-0.173 0.002-0.26 0.006-7.346 0-15.354 0.649-23.901 0.974-66.439 2.056-166.855 5.085-194.772 95.763-23.048 76.935 79.532 166.205 124.329 201.048 0.491 0.38 1.068 0.678 1.695 0.857 0.458 0.135 0.941 0.207 1.443 0.207s0.985-0.072 1.443-0.208c1.102-0.184 1.958-1.162 1.958-2.339 0-0.164-0.016-0.325-0.049-0.48-12.671-61.197-28.903-114.395-49.368-165.441 0.959 3.909 0.171 0.843 0.171-2.407 0-7.411 4.094-13.866 10.144-17.227 50-31.274 93.241-66.155 131.896-105.55 0.422-0.51 0.611-1.020 0.611-1.573 0-0.769-0.364-1.453-0.929-1.888z" />
<glyph unicode="&#xe90a;" glyph-name="pipe" d="M648.336 924.159v35.84h-77.157v-323.632h77.157v35.84h372.45v251.952h-372.45zM458.776 928.922h-42.508c-208.945 0-378.336-169.35-378.404-378.278v-52.516h-34.53v-77.157h323.632v77.157h-38.341v52.51c0.068 70.468 57.175 127.575 127.637 127.643h42.515v-41.913h77.157v323.632h-77.157v-31.077zM3.215 308.449h35.959v-372.45h251.833v372.45h35.959v77.157h-323.751v-77.157z" />
<glyph unicode="&#xe90b;" glyph-name="calendar" d="M864 832h-96v102.4c0 16-9.6 25.6-25.6 25.6h-16c-12.8 0-22.4-9.6-22.4-25.6v-102.4h-384v102.4c0 16-9.6 25.6-25.6 25.6h-12.8c-16 0-25.6-9.6-25.6-25.6v-102.4h-96c-54.4 0-96-41.6-96-96v-704c0-54.4 41.6-96 96-96h704c54.4 0 96 41.6 96 96v704c0 54.4-41.6 96-96 96zM160 768h704c16 0 32-12.8 32-32v-96h-768v96c0 19.2 12.8 32 32 32zM864 0h-704c-19.2 0-32 16-32 32v544h768v-544c0-16-16-32-32-32zM358.4 320h-76.8c-16 0-25.6 9.6-25.6 25.6v80c0 12.8 9.6 22.4 25.6 22.4h80c12.8 0 25.6-9.6 25.6-25.6v-80c-3.2-12.8-12.8-22.4-28.8-22.4zM550.4 320h-80c-12.8 0-25.6 9.6-25.6 25.6v80c0 12.8 9.6 25.6 25.6 25.6h80c12.8 0 25.6-9.6 25.6-25.6v-80c0-16-9.6-25.6-25.6-25.6zM742.4 320h-80c-12.8 0-25.6 9.6-25.6 25.6v80c0 12.8 9.6 25.6 25.6 25.6h80c12.8 0 25.6-9.6 25.6-25.6v-80c0-16-9.6-25.6-25.6-25.6zM550.4 128h-80c-12.8 0-25.6 9.6-25.6 25.6v80c0 12.8 9.6 25.6 25.6 25.6h80c12.8 0 25.6-9.6 25.6-25.6v-80c0-16-9.6-25.6-25.6-25.6zM358.4 128h-76.8c-16 0-25.6 9.6-25.6 25.6v80c0 12.8 9.6 22.4 25.6 22.4h80c12.8 0 25.6-9.6 25.6-25.6v-80c-3.2-12.8-12.8-22.4-28.8-22.4zM742.4 128h-80c-12.8 0-25.6 9.6-25.6 25.6v80c0 12.8 9.6 25.6 25.6 25.6h80c12.8 0 25.6-9.6 25.6-25.6v-80c0-16-9.6-25.6-25.6-25.6z" />
<glyph unicode="&#xe90c;" glyph-name="list" d="M128 444.8c0-35.2-28.8-64-64-64s-64 28.8-64 64c0 35.2 28.8 64 64 64s64-28.8 64-64zM992 476.8h-768c-19.2 0-32-12.8-32-32s12.8-32 32-32h768c19.2 0 32 12.8 32 32s-12.8 32-32 32zM64 832c-35.2 0-64-28.8-64-64s28.8-64 64-64 64 28.8 64 64-28.8 64-64 64zM992 800h-768c-16 0-32-12.8-32-32s12.8-32 32-32h768c19.2 0 32 12.8 32 32s-12.8 32-32 32zM64 192c-35.2 0-64-28.8-64-64s28.8-64 64-64 64 28.8 64 64c0 35.2-28.8 64-64 64zM992 160h-768c-19.2 0-32-12.8-32-32s12.8-32 32-32h768c19.2 0 32 12.8 32 32s-12.8 32-32 32z" />
<glyph unicode="&#xe90d;" glyph-name="user" d="M691.2 384c-57.6 0-86.4-32-179.2-32s-121.6 32-179.2 32c-147.2 0-268.8-121.6-268.8-268.8v-83.2c0-54.4 41.6-96 96-96h704c54.4 0 96 41.6 96 96v83.2c0 147.2-121.6 268.8-268.8 268.8zM896 32c0-16-16-32-32-32h-704c-19.2 0-32 16-32 32v83.2c0 112 92.8 204.8 204.8 204.8 38.4 0 76.8-32 179.2-32 99.2 0 140.8 32 179.2 32 112 0 204.8-92.8 204.8-204.8v-83.2zM512 448c140.8 0 256 115.2 256 256s-115.2 256-256 256-256-115.2-256-256 115.2-256 256-256zM512 896c105.6 0 192-86.4 192-192s-86.4-192-192-192-192 86.4-192 192 86.4 192 192 192z" />
<glyph unicode="&#xe90e;" glyph-name="doc" d="M867.2 764.8l-166.4 166.4c-19.2 19.2-44.8 28.8-67.2 28.8h-409.6c-54.4 0-96-41.6-96-96v-832c0-54.4 41.6-96 96-96h576c54.4 0 96 41.6 96 96v665.6c0 22.4-9.6 48-28.8 67.2zM822.4 720c3.2-6.4 6.4-9.6 9.6-16h-192v192c6.4 0 9.6-3.2 16-9.6l166.4-166.4zM800 0h-576c-19.2 0-32 16-32 32v832c0 16 12.8 32 32 32h352v-208c0-25.6 22.4-48 48-48h208v-608c0-19.2-16-32-32-32zM704 486.4v-16c0-12.8-9.6-22.4-25.6-22.4h-332.8c-12.8 0-25.6 9.6-25.6 22.4v16c0 12.8 9.6 25.6 25.6 25.6h336c12.8 0 22.4-9.6 22.4-25.6zM704 358.4v-16c0-12.8-9.6-25.6-25.6-25.6h-332.8c-12.8 0-25.6 9.6-25.6 25.6v16c0 12.8 9.6 25.6 25.6 25.6h336c12.8 0 22.4-9.6 22.4-25.6zM704 230.4v-16c0-12.8-9.6-25.6-25.6-25.6h-332.8c-12.8 0-25.6 9.6-25.6 25.6v16c0 12.8 9.6 25.6 25.6 25.6h336c12.8 0 22.4-9.6 22.4-25.6z" />
<glyph unicode="&#xe90f;" glyph-name="edit" d="M867.2 764.8l-166.4 166.4c-19.2 19.2-44.8 28.8-67.2 28.8h-409.6c-54.4 0-96-41.6-96-96v-832c0-54.4 41.6-96 96-96h576c54.4 0 96 41.6 96 96v665.6c0 22.4-9.6 48-28.8 67.2zM822.4 720c3.2-6.4 6.4-9.6 9.6-16h-192v192c6.4 0 9.6-3.2 16-9.6l166.4-166.4zM800 0h-576c-19.2 0-32 16-32 32v832c0 16 12.8 32 32 32h352v-208c0-25.6 22.4-48 48-48h208v-608c0-19.2-16-32-32-32zM566.4 464l57.6-57.6c3.2-3.2 3.2-9.6 0-12.8l-224-224-60.8-9.6c-12.8 0-22.4 9.6-19.2 19.2l9.6 60.8 224 224c3.2 6.4 9.6 6.4 12.8 0zM694.4 464l-32-32c-3.2-3.2-9.6-3.2-12.8 0l-60.8 57.6c-3.2 3.2-3.2 9.6 0 12.8l32 32c12.8 12.8 32 12.8 41.6 0l28.8-28.8c16-12.8 16-32 3.2-41.6z" />
<glyph unicode="&#xe910;" glyph-name="backward" d="M534.4 396.8l384-320c41.6-32 105.6-3.2 105.6 51.2v640c0 54.4-64 83.2-105.6 48l-384-320c-28.8-25.6-28.8-73.6 0-99.2zM576 448l384 320v-640l-384 320zM22.4 396.8l384-320c41.6-32 105.6-3.2 105.6 51.2v640c0 54.4-64 83.2-105.6 48l-384-320c-28.8-25.6-28.8-73.6 0-99.2zM64 448l384 320v-640l-384 320z" />
<glyph unicode="&#xe911;" glyph-name="forward" d="M489.6 499.2l-384 320c-41.6 32-105.6 3.2-105.6-51.2v-640c0-54.4 64-83.2 105.6-48l384 320c28.8 25.6 28.8 73.6 0 99.2zM448 448l-384-320v640l384-320zM1001.6 499.2l-384 320c-41.6 32-105.6 3.2-105.6-51.2v-640c0-54.4 64-83.2 105.6-48l384 320c28.8 25.6 28.8 73.6 0 99.2zM960 448l-384-320v640l384-320z" />
<glyph unicode="&#xe912;" glyph-name="previous" d="M217.6 0h16c12.8 0 22.4 9.6 22.4 22.4v380.8c3.2-3.2 3.2-3.2 6.4-6.4l464-384c41.6-32 105.6-3.2 105.6 51.2v768c0 54.4-64 83.2-105.6 48l-464-384c-3.2-3.2-3.2-3.2-6.4-6.4v384c0 12.8-9.6 22.4-25.6 22.4h-12.8c-16 0-25.6-9.6-25.6-25.6v-848c0-12.8 9.6-22.4 25.6-22.4zM297.6 448l470.4 384v-768c0 0-470.4 384-470.4 384z" />
<glyph unicode="&#xe913;" glyph-name="next" d="M806.4 896h-16c-12.8 0-22.4-9.6-22.4-22.4v-380.8c-3.2 3.2-3.2 3.2-6.4 6.4l-464 380.8c-41.6 35.2-105.6 6.4-105.6-48v-768c0-54.4 64-83.2 105.6-48l464 384c3.2 3.2 3.2 3.2 6.4 6.4v-384c0-12.8 9.6-25.6 25.6-25.6h16c12.8 0 25.6 9.6 25.6 25.6v851.2c-3.2 12.8-12.8 22.4-28.8 22.4zM726.4 448l-470.4-384v768l470.4-384z" />
<glyph unicode="&#xe914;" glyph-name="checked-arrow" d="M889.6 777.6l-560-560-198.4 198.4c-9.6 9.6-25.6 9.6-35.2 0l-22.4-22.4c-9.6-9.6-9.6-25.6 0-35.2l236.8-236.8c9.6-9.6 25.6-9.6 35.2 0l601.6 598.4c9.6 9.6 9.6 25.6 0 35.2l-22.4 22.4c-9.6 6.4-25.6 6.4-35.2 0z" />
<glyph unicode="&#xe915;" glyph-name="checked" d="M864 896h-704c-54.4 0-96-41.6-96-96v-704c0-54.4 41.6-96 96-96h704c54.4 0 96 41.6 96 96v704c0 54.4-41.6 96-96 96zM864 832c19.2 0 32-12.8 32-32v-704c0-19.2-12.8-32-32-32h-704c-19.2 0-32 12.8-32 32v704c0 19.2 12.8 32 32 32h704zM796.8 636.8l-16 16c-9.6 9.6-25.6 9.6-35.2 0l-326.4-323.2-137.6 137.6c-9.6 9.6-25.6 9.6-35.2 0l-16-16c-9.6-9.6-9.6-25.6 0-35.2l172.8-172.8c9.6-9.6 25.6-9.6 35.2 0l361.6 358.4c3.2 9.6 3.2 25.6-3.2 35.2z" />
<glyph unicode="&#xe916;" glyph-name="downarrow-black" d="M256 617.6h512c35.2 0 54.4-41.6 28.8-67.2l-256-256c-16-16-41.6-16-57.6 0l-256 256c-25.6 22.4-9.6 67.2 28.8 67.2z" />
<glyph unicode="&#xe917;" glyph-name="uparrow-black" d="M768 278.4h-512c-35.2 0-54.4 41.6-28.8 67.2l256 256c16 16 41.6 16 57.6 0l256-256c25.6-22.4 9.6-67.2-28.8-67.2z" />
<glyph unicode="&#xe918;" glyph-name="downarrow" d="M768 640h-512c-57.6 0-86.4-70.4-44.8-108.8l256-256c25.6-25.6 64-25.6 89.6 0l256 256c41.6 38.4 12.8 108.8-44.8 108.8zM512 320l-256 256h512c0 0-256-256-256-256z" />
<glyph unicode="&#xe919;" glyph-name="uparrow" d="M256 256h512c57.6 0 86.4 70.4 44.8 108.8l-256 256c-25.6 25.6-64 25.6-89.6 0l-256-256c-41.6-38.4-12.8-108.8 44.8-108.8zM512 576l256-256h-512l256 256z" />
<glyph unicode="&#xe91a;" glyph-name="down" d="M496 307.2l-230.4 236.8c-9.6 9.6-9.6 25.6 0 35.2l12.8 12.8c9.6 9.6 25.6 9.6 35.2 0l198.4-208 201.6 204.8c9.6 9.6 25.6 9.6 35.2 0l12.8-12.8c9.6-9.6 9.6-25.6 0-35.2l-230.4-236.8c-12.8-6.4-25.6-6.4-35.2 3.2z" />
<glyph unicode="&#xe91b;" glyph-name="up" d="M528 588.8l230.4-236.8c9.6-9.6 9.6-25.6 0-35.2l-12.8-12.8c-9.6-9.6-25.6-9.6-35.2 0l-198.4 208-201.6-204.8c-9.6-9.6-25.6-9.6-35.2 0l-12.8 12.8c-9.6 9.6-9.6 25.6 0 35.2l230.4 236.8c12.8 6.4 25.6 6.4 35.2-3.2z" />
<glyph unicode="&#xe91c;" glyph-name="filter" d="M960 960h-896c-57.6 0-86.4-70.4-44.8-108.8l364.8-364.8v-374.4c0-19.2 6.4-35.2 22.4-48l128-112c41.6-35.2 105.6-6.4 105.6 48v486.4l364.8 364.8c41.6 38.4 12.8 108.8-44.8 108.8v0zM576 512v-512l-128 112v400l-384 384h896l-384-384z" />
<glyph unicode="&#xe91d;" glyph-name="cog" d="M966.4 361.6l-64 38.4c3.2 32 3.2 64 0 99.2l64 38.4c19.2 9.6 28.8 35.2 22.4 54.4-22.4 76.8-60.8 144-115.2 198.4-16 16-38.4 19.2-57.6 9.6l-64-38.4c-25.6 19.2-54.4 35.2-83.2 48v73.6c0 22.4-16 41.6-38.4 48-76.8 19.2-153.6 19.2-230.4 0-22.4-6.4-38.4-25.6-38.4-48v-76.8c-28.8-12.8-57.6-28.8-83.2-48l-64 38.4c-22.4 12.8-48 9.6-64-9.6-51.2-54.4-92.8-124.8-115.2-198.4-6.4-22.4 3.2-44.8 22.4-54.4l64-38.4c-3.2-32-3.2-64 0-99.2l-64-38.4c-19.2-9.6-28.8-35.2-22.4-54.4 22.4-76.8 60.8-144 115.2-198.4 16-16 38.4-19.2 57.6-9.6l64 38.4c25.6-19.2 54.4-35.2 83.2-48v-76.8c0-22.4 16-41.6 38.4-48 76.8-19.2 153.6-19.2 230.4 0 22.4 6.4 38.4 25.6 38.4 48v76.8c28.8 12.8 57.6 28.8 83.2 48l64-38.4c19.2-9.6 44.8-6.4 57.6 9.6 51.2 54.4 92.8 124.8 115.2 198.4 12.8 22.4 3.2 44.8-16 57.6zM835.2 160l-92.8 54.4c-54.4-44.8-73.6-57.6-140.8-83.2v-105.6c-57.6-12.8-118.4-12.8-176 0v105.6c-67.2 22.4-86.4 35.2-140.8 83.2l-96-54.4c-38.4 44.8-70.4 96-86.4 150.4l92.8 54.4c-12.8 70.4-12.8 92.8 0 163.2l-92.8 54.4c19.2 57.6 48 108.8 86.4 153.6l92.8-54.4c54.4 48 73.6 57.6 140.8 83.2v105.6c57.6 12.8 118.4 12.8 176 0v-105.6c67.2-25.6 86.4-35.2 140.8-83.2l96 54.4c38.4-44.8 70.4-96 86.4-150.4l-92.8-54.4c12.8-70.4 12.8-92.8 0-163.2l92.8-54.4c-19.2-57.6-48-108.8-86.4-153.6zM512 640c-105.6 0-192-86.4-192-192s86.4-192 192-192 192 86.4 192 192-86.4 192-192 192zM512 320c-70.4 0-128 57.6-128 128s57.6 128 128 128 128-57.6 128-128-57.6-128-128-128z" />
<glyph unicode="&#xe91e;" glyph-name="sign-out" d="M320 524.8c0 19.2 12.8 32 32 32h288v188.8c0 12.8 16 22.4 28.8 12.8l284.8-284.8c12.8-12.8 12.8-32 0-44.8l-284.8-284.8c-12.8-16-28.8-6.4-28.8 6.4v188.8h-288c-19.2 0-32 16-32 32v153.6zM256 524.8v-156.8c0-54.4 41.6-96 96-96h224v-124.8c0-70.4 86.4-105.6 137.6-57.6l284.8 284.8c38.4 38.4 38.4 99.2 0 134.4l-284.8 284.8c-51.2 57.6-137.6 22.4-137.6-48v-124.8h-224c-54.4 0-96-41.6-96-96zM0 736v-576c0-54.4 41.6-96 96-96h262.4c12.8 0 25.6 9.6 25.6 25.6v16c0 12.8-9.6 25.6-25.6 25.6h-262.4c-16 0-32 16-32 32v572.8c0 19.2 16 32 32 32h262.4c16 0 25.6 9.6 25.6 25.6v12.8c0 16-9.6 25.6-25.6 25.6h-262.4c-54.4 0-96-41.6-96-96z" />
<glyph unicode="&#xe91f;" glyph-name="vehicle-crash" d="M931.625 363.144l-44.8-54.4c-6.4-9.6-9.6-19.2-9.6-28.8s6.4-19.2 16-25.6l57.6-38.4-70.4-6.4c-9.6 0-19.2-6.4-25.6-16v0c-6.4-9.6-9.6-19.2-6.4-28.8l12.8-67.2-54.4 44.8c-9.6 6.4-19.2 9.6-28.8 9.6s-19.2-6.4-25.6-16l-57.6-89.6c-6.4-9.6-6.4-22.4 3.2-32 0 0 3.2-3.2 3.2-3.2 12.8-6.4 25.6-3.2 35.2 6.4l51.2 76.8 70.4-57.6c12.8-9.6 28.8-12.8 41.6-3.2s19.2 22.4 16 38.4l-19.2 89.6 89.6 9.6c16 0 28.8 12.8 32 28.8s-3.2 32-16 41.6l-67.2 44.8 57.6 70.4c9.6 12.8 12.8 28.8 3.2 41.6s-22.4 19.2-38.4 16l-89.6-12.8-9.6 89.6c0 12.8-12.8 22.4-28.8 22.4-12.8 0-22.4-12.8-22.4-28.8l9.6-105.6c0-9.6 6.4-19.2 16-25.6s19.2-9.6 28.8-6.4c3.2 0 70.4 16 70.4 16zM282.025 247.944c25.6 6.4 41.6 32 35.2 57.6s-32 41.6-57.6 35.2-41.6-32-35.2-57.6c6.4-28.8 32-41.6 57.6-35.2zM656.425 347.144c25.6 6.4 41.6 32 35.2 57.6s-32 41.6-57.6 35.2c-25.6-6.4-41.6-32-35.2-57.6s32-41.6 57.6-35.2zM707.625 763.144l-12.8-3.2-16 70.4c-19.2 64-176 76.8-358.4 28.8s-313.6-140.8-294.4-204.8l19.2-70.4-12.8-3.2c-19.2-6.4-32-25.6-25.6-44.8l32-115.2c6.4-19.2 25.6-32 44.8-25.6l12.8 3.2 60.8-233.6c6.4-25.6 32-41.6 57.6-35.2l12.8-44.8c6.4-25.6 32-41.6 57.6-35.2l70.4 19.2c25.6 6.4 41.6 32 35.2 57.6l-12.8 44.8 233.6 64 12.8-44.8c6.4-25.6 32-41.6 57.6-35.2l70.4 19.2c25.6 6.4 41.6 32 35.2 57.6l-12.8 48c25.6 6.4 41.6 32 35.2 57.6l-60.8 233.6 12.8 3.2c19.2 6.4 32 25.6 25.6 44.8l-32 115.2c-9.6 22.4-28.8 32-48 28.8zM342.825 113.544l-70.4-19.2-12.8 48 70.4 19.2 12.8-48zM739.625 222.344l-70.4-19.2-12.8 44.8 70.4 19.2 12.8-44.8zM762.025 324.744l-560-147.2-51.2 185.6 560 150.4c3.2 0 51.2-188.8 51.2-188.8zM701.225 558.344l-560-147.2-51.2 185.6 560 150.4 51.2-188.8zM637.225 791.944l-560-150.4-6.4 22.4c0 22.4 80 96 259.2 147.2s288 22.4 297.6 6.4l9.6-25.6z" />
<glyph unicode="&#xe920;" glyph-name="vehicle-return" d="M680 793.6c-51.2 0-100.8-11.2-144-32-52.8 16-120 25.6-193.6 25.6-168 0-300.8-46.4-300.8-107.2v-64h-11.2c-17.6 0-32-14.4-32-32v-107.2c0-17.6 14.4-32 32-32h11.2v-214.4c0-24 19.2-43.2 43.2-43.2v-43.2c0-24 19.2-43.2 43.2-43.2h64c24 0 43.2 19.2 43.2 43.2v43.2h214.4v-43.2c0-24 19.2-43.2 43.2-43.2h64c14.4 0 27.2 8 35.2 19.2 27.2-8 57.6-11.2 88-11.2 188.8 0 344 153.6 344 344-1.6 187.2-155.2 340.8-344 340.8zM84.8 680c4.8 17.6 91.2 64 257.6 64 56 0 102.4-4.8 139.2-12.8-28.8-20.8-54.4-44.8-75.2-73.6h-321.6v22.4zM84.8 616h292.8c-25.6-49.6-41.6-105.6-41.6-164.8 0-3.2 0-4.8 0-8h-251.2v172.8zM192 144h-64v43.2h64v-43.2zM84.8 228.8v171.2h256c9.6-65.6 36.8-124.8 76.8-171.2h-332.8zM492.8 144v19.2c11.2-8 24-14.4 35.2-19.2h-35.2zM680 152c-27.2 0-54.4 4.8-80 11.2-14.4 4.8-28.8 9.6-43.2 16-4.8 1.6-11.2 4.8-16 8-22.4 11.2-43.2 25.6-60.8 43.2-49.6 43.2-83.2 104-94.4 171.2-1.6 14.4-3.2 28.8-4.8 43.2 0 1.6 0 4.8 0 8 0 60.8 17.6 116.8 49.6 164.8 9.6 16 22.4 30.4 35.2 43.2 22.4 22.4 48 41.6 75.2 57.6 17.6 9.6 36.8 16 56 22.4 27.2 8 54.4 12.8 84.8 12.8 164.8 0 299.2-132.8 299.2-299.2-3.2-168-136-302.4-300.8-302.4zM214.4 315.2c0-23.859-19.341-43.2-43.2-43.2s-43.2 19.341-43.2 43.2c0 23.859 19.341 43.2 43.2 43.2s43.2-19.341 43.2-43.2zM867.2 539.2h-144v88c0 40-48 59.2-75.2 32l-6.4-4.8-171.2-171.2c-11.2-11.2-14.4-25.6-12.8-38.4 1.6-9.6 4.8-17.6 12.8-24l179.2-179.2c27.2-27.2 75.2-8 75.2 32v88h144c17.6 0 33.6 14.4 33.6 33.6v110.4c-1.6 19.2-16 33.6-35.2 33.6zM856 406.4h-176v-132.8l-80 80-48 46.4-49.6 49.6 177.6 177.6v-132.8h177.6v-88z" />
<glyph unicode="&#xe921;" glyph-name="vehicle1" d="M256 192c35.2 0 64 28.8 64 64s-28.8 64-64 64-64-28.8-64-64 28.8-64 64-64zM768 192c35.2 0 64 28.8 64 64s-28.8 64-64 64-64-28.8-64-64 28.8-64 64-64zM976 704h-16v96c0 89.6-198.4 160-448 160s-448-70.4-448-160v-96h-16c-25.6 0-48-22.4-48-48v-160c0-25.6 22.4-48 48-48h16v-320c0-35.2 28.8-64 64-64v-64c0-35.2 28.8-64 64-64h96c35.2 0 64 28.8 64 64v64h320v-64c0-35.2 28.8-64 64-64h96c35.2 0 64 28.8 64 64v64c35.2 0 64 28.8 64 64v320h16c25.6 0 48 22.4 48 48v160c0 25.6-22.4 48-48 48zM288 0h-96v64h96v-64zM832 0h-96v64h96v-64zM896 128h-768v256h768c0 0 0-256 0-256zM896 448h-768v256h768v-256zM896 768h-768v32c6.4 25.6 134.4 96 384 96s377.6-70.4 384-96v-32z" />
<glyph unicode="&#xe922;" glyph-name="go-up" d="M512-48c275.2 0 496 220.8 496 496s-220.8 496-496 496-496-220.8-496-496 220.8-496 496-496zM80 448c0 236.8 192 432 432 432 236.8 0 432-192 432-432 0-236.8-192-432-432-432-236.8 0-432 192-432 432zM265.6 473.6l230.4 230.4c9.6 9.6 25.6 9.6 35.2 0l230.4-230.4c9.6-9.6 9.6-25.6 0-35.2l-12.8-12.8c-9.6-9.6-25.6-9.6-35.2 0l-166.4 169.6v-380.8c0-12.8-9.6-25.6-25.6-25.6h-19.2c-12.8 0-25.6 9.6-25.6 25.6v380.8l-166.4-169.6c-6.4-9.6-22.4-9.6-32 0l-12.8 12.8c-9.6 9.6-9.6 25.6 0 35.2z" />
<glyph unicode="&#xe923;" glyph-name="chevron-square-up" d="M160 0h704c54.4 0 96 41.6 96 96v704c0 54.4-41.6 96-96 96h-704c-54.4 0-96-41.6-96-96v-704c0-54.4 41.6-96 96-96zM128 800c0 19.2 12.8 32 32 32h704c16 0 32-12.8 32-32v-704c0-16-16-32-32-32h-704c-19.2 0-32 16-32 32v704zM528 608l230.4-230.4c9.6-9.6 9.6-25.6 0-35.2l-12.8-12.8c-9.6-9.6-25.6-9.6-35.2 0l-198.4 198.4-198.4-198.4c-9.6-9.6-25.6-9.6-35.2 0l-12.8 12.8c-9.6 9.6-9.6 25.6 0 35.2l230.4 230.4c9.6 9.6 22.4 9.6 32 0z" />
<glyph unicode="&#xe924;" glyph-name="reload" d="M985.6 944h-19.2c-12.8 0-25.6-9.6-25.6-25.6v-220.8c-86.4 147.2-246.4 246.4-428.8 246.4-265.6 0-483.2-208-496-470.4 0-12.8 9.6-25.6 22.4-25.6h19.2c12.8 0 22.4 9.6 22.4 22.4 16 224 201.6 406.4 432 406.4 166.4 0 310.4-92.8 380.8-230.4h-227.2c-12.8 0-25.6-9.6-25.6-25.6v-19.2c0-12.8 9.6-25.6 25.6-25.6h320c12.8 0 25.6 9.6 25.6 25.6v320c-3.2 12.8-12.8 22.4-25.6 22.4zM982.4 448h-19.2c-12.8 0-22.4-9.6-22.4-22.4-12.8-227.2-198.4-406.4-428.8-406.4-166.4 0-310.4 92.8-380.8 230.4h227.2c12.8 0 25.6 9.6 25.6 25.6v19.2c0 12.8-9.6 25.6-25.6 25.6h-320c-12.8 0-25.6-9.6-25.6-25.6v-320c0-12.8 9.6-25.6 25.6-25.6h19.2c12.8 0 25.6 9.6 25.6 25.6v220.8c86.4-147.2 246.4-246.4 428.8-246.4 265.6 0 483.2 208 496 470.4 0 16-9.6 28.8-25.6 28.8z" />
<glyph unicode="&#xe925;" glyph-name="file-plus" d="M867.2 764.8l-166.4 166.4c-19.2 19.2-44.8 28.8-67.2 28.8h-409.6c-54.4 0-96-41.6-96-96v-832c0-54.4 41.6-96 96-96h576c54.4 0 96 41.6 96 96v665.6c0 22.4-9.6 48-28.8 67.2zM822.4 720c3.2-6.4 6.4-9.6 9.6-16h-192v192c6.4 0 9.6-3.2 16-9.6l166.4-166.4zM800 0h-576c-19.2 0-32 16-32 32v832c0 16 12.8 32 32 32h352v-208c0-25.6 22.4-48 48-48h208v-608c0-19.2-16-32-32-32zM704 358.4v-16c0-12.8-9.6-25.6-25.6-25.6h-134.4v-134.4c0-12.8-9.6-25.6-25.6-25.6h-16c-12.8 0-25.6 9.6-25.6 25.6v137.6h-134.4c-12.8 0-25.6 9.6-25.6 25.6v16c0 12.8 9.6 25.6 25.6 25.6h137.6v134.4c0 12.8 9.6 25.6 25.6 25.6h16c12.8 0 25.6-9.6 25.6-25.6v-137.6h134.4c12.8 0 22.4-9.6 22.4-25.6z" />
<glyph unicode="&#xe926;" glyph-name="pipe-line" d="M336 428.8h-323.2c-6.4 0-12.8-6.4-12.8-12.8v-41.6c0-6.4 6.4-12.8 12.8-12.8h25.6v-339.2h-25.6c-6.4 0-12.8-6.4-12.8-12.8v-41.6c0-6.4 6.4-12.8 12.8-12.8h323.2c6.4 0 12.8 6.4 12.8 12.8v41.6c0 6.4-6.4 12.8-12.8 12.8h-25.6v339.2h25.6c6.4 0 12.8 6.4 12.8 12.8v41.6c0 6.4-6.4 12.8-12.8 12.8zM243.2 22.4h-137.6v339.2h134.4v-339.2zM502.4 940.8h-41.6c-6.4 0-12.8-3.2-12.8-12.8v-22.4h-294.4c-64 0-115.2-51.2-115.2-115.2v-268.8h-25.6c-6.4 3.2-12.8-3.2-12.8-9.6v-41.6c0-6.4 6.4-12.8 12.8-12.8h323.2c6.4 0 12.8 6.4 12.8 12.8v41.6c0 6.4-6.4 12.8-12.8 12.8h-25.6v60.8c0 28.8 22.4 51.2 51.2 51.2h86.4v-28.8c0-6.4 6.4-12.8 12.8-12.8h41.6c6.4 0 12.8 6.4 12.8 12.8v320c0 9.6-3.2 12.8-12.8 12.8zM448 704h-92.8c-60.8 0-112-51.2-112-112v-67.2h-137.6v236.8c0 44.8 35.2 76.8 76.8 76.8h265.6v-134.4zM550.4 928v-320c0-6.4 6.4-12.8 12.8-12.8h41.6c6.4 0 12.8 6.4 12.8 12.8v25.6h339.2v-25.6c0-6.4 6.4-12.8 12.8-12.8h41.6c6.4 0 12.8 6.4 12.8 12.8v320c0 6.4-6.4 12.8-12.8 12.8h-41.6c-6.4 0-12.8-6.4-12.8-12.8v-25.6h-339.2v25.6c0 6.4-6.4 12.8-12.8 12.8h-41.6c-9.6 0-12.8-3.2-12.8-12.8zM956.8 835.2v-134.4h-339.2v134.4h339.2z" />
<glyph unicode="&#xe927;" glyph-name="up-down" d="M768 384h-512c-57.6 0-86.4-70.4-44.8-108.8l256-256c25.6-25.6 67.2-25.6 89.6 0l256 256c41.6 38.4 12.8 108.8-44.8 108.8zM512 64l-256 256h512l-256-256zM256 512h512c57.6 0 86.4 70.4 44.8 108.8l-256 256c-25.6 25.6-67.2 25.6-89.6 0l-256-256c-41.6-38.4-12.8-108.8 44.8-108.8zM512 832l256-256h-512l256 256z" />
<glyph unicode="&#xe928;" glyph-name="checklist" d="M800 832h-176c0 6.4 0 9.6 0 16 0 60.8-51.2 112-112 112s-112-51.2-112-112c0-6.4 0-9.6 0-16h-176c-54.4 0-96-41.6-96-96v-704c0-54.4 41.6-96 96-96h576c54.4 0 96 41.6 96 96v704c0 54.4-41.6 96-96 96zM512 896c25.6 0 48-22.4 48-48s-22.4-48-48-48c-25.6 0-48 22.4-48 48s22.4 48 48 48zM832 32c0-16-16-32-32-32h-576c-19.2 0-32 16-32 32v704c0 19.2 12.8 32 32 32h96v-38.4c0-16 9.6-25.6 25.6-25.6h336c12.8 0 22.4 9.6 22.4 25.6v38.4h96c16 0 32-12.8 32-32v-704zM352 304c-25.6 0-48-22.4-48-48s22.4-48 48-48 48 22.4 48 48-22.4 48-48 48zM688 288h-224c-9.6 0-16-6.4-16-16v-32c0-9.6 6.4-16 16-16h224c9.6 0 16 6.4 16 16v32c0 9.6-6.4 16-16 16zM380.8 419.2l128 128c3.2 3.2 3.2 9.6 0 16l-25.6 25.6c-3.2 3.2-9.6 3.2-16 0l-96-92.8-41.6 41.6c-3.2 3.2-9.6 3.2-16 0l-25.6-25.6c-3.2-3.2-3.2-9.6 0-16l73.6-73.6c6.4-6.4 16-6.4 19.2-3.2zM688 480h-156.8l-64-64h220.8c9.6 0 16 6.4 16 16v32c0 9.6-6.4 16-16 16z" />
<glyph unicode="&#xe929;" glyph-name="lock" d="M864 512h-32v125c0 176.8-142.2 322.4-319 323-177 0.6-321-143.2-321-320v-128h-32c-53 0-96-43-96-96v-384c0-53 43-96 96-96h704c53 0 96 43 96 96v384c0 53-43 96-96 96zM256 640c0 141.2 114.8 256 256 256s256-114.8 256-256v-128h-512v128zM864 0h-704c-17.6 0-32 14.4-32 32v384c0 17.6 14.4 32 32 32h704c17.6 0 32-14.4 32-32v-384c0-17.6-14.4-32-32-32z" />
<glyph unicode="&#xe92a;" glyph-name="steering" d="M512 954.495c-279.277 0-506.495-227.218-506.495-506.495s227.218-506.495 506.495-506.495c279.277 0 506.495 227.218 506.495 506.495s-227.218 506.495-506.495 506.495zM512 912.29c120.392 0 229.871-46.454 312.452-121.878l-30.214-30.225c-75.732 68.487-175.302 109.887-282.239 109.887-107.388 0-207.068-41.257-282.712-109.524l-29.806 29.806c82.592 75.457 192.094 121.933 312.518 121.933zM466.669 242.143c14.633-3.226 29.74-5.186 45.331-5.186s30.687 1.96 45.331 5.186c-2.048-13.059-3.127-26.272-3.127-39.562 0-44.66 12.167-87.789 34.111-126.315-24.818-5.164-50.308-8.137-76.316-8.137-26.217 0-51.718 2.896-76.448 7.917 22.033 38.582 34.243 81.799 34.243 126.536 0 13.268-1.090 26.492-3.127 39.562zM512 279.172c-93.096 0-168.828 75.732-168.828 168.828s75.732 168.828 168.828 168.828c93.096 0 168.828-75.732 168.828-168.828s-75.732-168.828-168.828-168.828zM427.581 202.581c0-41.224-11.958-81.072-34.265-115.679-112.75 36.93-202.091 125.919-239.032 244.824 50.033 30.918 112.1 39.496 168.861 23.959 20.601-41.929 54.437-75.787 96.333-96.432 5.087-18.52 8.104-37.481 8.104-56.672zM604.534 259.265c41.874 20.634 75.688 54.47 96.289 96.366 59.392 16.098 125.148 5.208 172.351-25.721-37.954-116.075-129.96-205.284-242.71-242.633-22.143 34.508-34.045 74.212-34.045 115.305 0 19.247 3.017 38.218 8.115 56.683zM677.227 577.685c-38.681 49.152-97.985 81.358-165.227 81.358-67.221 0-126.514-32.184-165.194-81.314l-81.766-32.746c-38.747-15.448-82.195-16.582-121.305-3.413 42.27 166.934 194.384 286.302 368.266 286.302 172.792 0 324.861-119.39 368.167-286.346-39.033-13.169-82.482-12.035-121.206 3.457l-81.733 32.702zM47.71 448c0 120.425 46.476 229.927 121.933 312.518l29.685-29.685c-49.57-54.58-85.432-122.23-100.892-198.15-1.178-5.726 0.242-11.704 3.623-16.472 2.356-3.27 5.626-5.803 9.337-7.311 53.479-23.684 114.941-24.796 169.323-3.116l33.462 13.4c-8.071-22.341-13.224-46.091-13.224-71.185 0-15.723 2.015-30.94 5.296-45.695-62.607 9.734-127.989-3.667-183.439-40.806l-6.342-5.23c-6.397-5.274-9.117-13.807-6.926-21.812 17.562-64.688 49.064-121.702 90.497-168.784l-30.324-30.269c-75.512 82.603-122.010 192.138-122.010 312.595zM512-16.29c-120.381 0-229.849 46.443-312.43 121.856l29.828 29.784c74.576-68.949 173.827-109.425 282.602-109.425 106.738 0 206.815 40.982 282.778 109.458l29.74-29.74c-82.592-75.457-192.094-121.933-312.518-121.933zM854.357 135.482l-29.784 29.795c42.27 46.465 74.763 102.4 92.931 165.183 2.213 7.63-0.055 15.855-5.847 21.273l-12.2 11.044c-53.27 35.521-118.817 49.196-181.721 39.507 3.281 14.754 5.307 29.982 5.307 45.717 0 25.094-5.153 48.844-13.235 71.185l33.484-13.4c25.886-10.339 53.138-15.58 80.973-15.58 30.962 0 60.967 6.43 89.242 19.104 9.051 4.063 14.061 13.874 12.013 23.596-15.9 75.644-51.883 143.085-101.332 197.555l30.114 30.114c75.49-82.592 121.977-192.127 121.977-312.573 0.011-120.425-46.465-229.927-121.922-312.518z" />
<glyph unicode="&#xe92b;" glyph-name="file-csv" d="M867.2 764.8l-166.4 166.4c-19.2 19.2-41.6 28.8-67.2 28.8h-409.6c-54.4 0-96-41.6-96-96v-832c0-54.4 41.6-96 96-96h576c54.4 0 96 41.6 96 96v665.6c0 25.6-9.6 48-28.8 67.2zM640 896c6.4 0 9.6-3.2 16-9.6l166.4-169.6c3.2-3.2 6.4-6.4 9.6-12.8h-192v192zM832 32c0-19.2-16-32-32-32h-576c-19.2 0-32 16-32 32v832c0 19.2 16 32 32 32h352v-208c0-25.6 22.4-48 48-48v0h208v-608zM368 448h-16c-54.4 0-96-41.6-96-96v-64c0-54.4 41.6-96 96-96h16c9.6 0 16 6.4 16 16v32c0 9.6-6.4 16-16 16h-16c-19.2 0-32 16-32 32v64c0 19.2 16 32 32 32h16c9.6 0 16 6.4 16 16v32c0 9.6-6.4 16-16 16zM592 448c-9.6 0-16-6.4-16-16v-41.6c0-70.4 25.6-137.6 73.6-188.8 6.4-6.4 16-9.6 22.4-9.6 9.6 0 16 3.2 22.4 9.6 48 51.2 73.6 118.4 73.6 188.8v41.6c0 9.6-6.4 16-16 16h-32c-9.6 0-16-6.4-16-16v-41.6c0-41.6-12.8-80-32-115.2-22.4 35.2-32 73.6-32 115.2v41.6c0 9.6-6.4 16-16 16h-32zM486.4 361.6c-3.2 3.2-3.2 3.2-3.2 6.4 0 6.4 9.6 12.8 22.4 12.8h25.6c9.6 0 16 6.4 16 16v32c0 9.6-6.4 16-16 16h-25.6c-44.8 3.2-83.2-32-86.4-76.8 0-22.4 9.6-41.6 28.8-54.4l44.8-38.4c3.2-3.2 3.2-3.2 3.2-6.4 0-6.4-9.6-12.8-22.4-12.8h-25.6c-9.6 0-16-6.4-16-16 0 0 0 0 0 0v-32c0-9.6 6.4-16 16-16h25.6c44.8-3.2 83.2 32 83.2 76.8 0 22.4-9.6 41.6-25.6 57.6l-44.8 35.2z" />
<glyph unicode="&#xe92c;" glyph-name="file-excel" d="M867.2 764.8l-166.4 166.4c-19.2 19.2-41.6 28.8-67.2 28.8h-409.6c-54.4 0-96-41.6-96-96v0-832c0-54.4 41.6-96 96-96h576c54.4 0 96 41.6 96 96v665.6c0 25.6-9.6 48-28.8 67.2zM822.4 720c3.2-6.4 6.4-9.6 9.6-16h-192v192c6.4 0 9.6-3.2 16-9.6l166.4-166.4zM800 0h-576c-19.2 0-32 16-32 32v832c0 19.2 16 32 32 32h352v-208c0-25.6 22.4-48 48-48v0h208v-608c0-19.2-16-32-32-32zM550.4 342.4l102.4 163.2c6.4 9.6 3.2 25.6-6.4 32-6.4 6.4-9.6 6.4-16 6.4h-9.6c-9.6 0-16-3.2-19.2-9.6-35.2-48-64-96-92.8-150.4-28.8 51.2-57.6 102.4-92.8 150.4 0 6.4-6.4 9.6-16 9.6h-9.6c-12.8 0-22.4-9.6-25.6-22.4 0-3.2 0-9.6 3.2-12.8l102.4-163.2-118.4-179.2c-6.4-12.8-3.2-25.6 6.4-32 3.2-3.2 9.6-3.2 12.8-3.2h12.8c9.6 0 16 3.2 19.2 9.6 73.6 115.2 89.6 124.8 108.8 166.4 32-57.6 67.2-112 108.8-166.4 3.2-6.4 12.8-9.6 19.2-9.6h6.4c12.8 0 22.4 9.6 22.4 22.4 0 3.2 0 9.6-3.2 12.8l-115.2 176z" />
<glyph unicode="&#xe92d;" glyph-name="file-gif" d="M867.2 764.8l-166.4 166.4c-19.2 19.2-41.6 28.8-67.2 28.8h-409.6c-54.4 0-96-41.6-96-96v-832c0-54.4 41.6-96 96-96h576c54.4 0 96 41.6 96 96v665.6c0 25.6-9.6 48-28.8 67.2zM640 896c6.4 0 9.6-3.2 16-9.6l166.4-169.6c3.2-3.2 6.4-6.4 9.6-12.8h-192v192zM832 32c0-19.2-16-32-32-32h-576c-19.2 0-32 16-32 32v832c0 19.2 16 32 32 32h352v-208c0-25.6 22.4-48 48-48v0h208v-608zM259.2 339.2c-6.4 54.4 35.2 102.4 92.8 108.8 6.4 0 9.6 0 16 0 25.6 0 51.2-6.4 70.4-22.4 16-9.6 25.6-25.6 25.6-41.6 0-12.8-9.6-22.4-22.4-25.6 0 0 0 0-3.2 0-6.4 0-12.8 3.2-19.2 6.4-12.8 16-32 25.6-51.2 28.8-32 0-51.2-22.4-51.2-64v-28.8c0-41.6 19.2-64 51.2-64 22.4-3.2 41.6 12.8 41.6 35.2 0 3.2 0 3.2 0 6.4v9.6h-22.4c-16 0-25.6 6.4-25.6 22.4s9.6 22.4 25.6 22.4h44.8c25.6 0 35.2-9.6 35.2-32v-16c0-51.2-41.6-92.8-92.8-92.8-3.2 0-6.4 0-9.6 0-57.6-3.2-105.6 38.4-108.8 92.8 0 6.4 0 12.8 0 19.2l3.2 35.2zM508.8 227.2v188.8c-3.2 16 9.6 32 25.6 32 16 3.2 32-9.6 32-25.6 0-3.2 0-3.2 0-6.4v-185.6c3.2-16-6.4-28.8-22.4-32-3.2 0-3.2 0-6.4 0-16 0-28.8 9.6-28.8 25.6 0 0 0 3.2 0 3.2zM614.4 227.2v182.4c0 16 12.8 32 28.8 32 3.2 0 3.2 0 6.4 0h108.8c12.8 0 22.4-9.6 22.4-22.4 0 0 0 0 0-3.2 0-12.8-9.6-22.4-22.4-22.4 0 0 0 0-3.2 0h-83.2v-60.8h76.8c12.8 0 22.4-9.6 22.4-19.2 0 0 0-3.2 0-3.2 0-12.8-9.6-22.4-19.2-22.4 0 0-3.2 0-3.2 0h-76.8v-64c0-19.2-9.6-32-28.8-32-16-3.2-28.8 9.6-32 25.6 3.2 3.2 3.2 6.4 3.2 9.6z" />
<glyph unicode="&#xe92e;" glyph-name="file-image" d="M444.8 288l-80 80c-9.6 9.6-22.4 9.6-32 0l-76.8-80v-224h512v288l-112 112c-9.6 9.6-22.4 9.6-32 0l-179.2-176zM636.8 390.4l64-64v-198.4h-384v134.4l32 32 96-96c41.6 38.4 156.8 153.6 192 192zM380.8 448c70.4 0 128 57.6 128 128s-57.6 128-128 128-128-57.6-128-128c0 0 0 0 0 0 0-70.4 57.6-128 128-128zM380.8 640c35.2 0 64-28.8 64-64s-28.8-64-64-64-64 28.8-64 64c0 0 0 0 0 0 0 35.2 28.8 64 64 64zM867.2 764.8l-166.4 166.4c-19.2 19.2-41.6 28.8-67.2 28.8h-409.6c-54.4 0-96-41.6-96-96v0-832c0-54.4 41.6-96 96-96h576c54.4 0 96 41.6 96 96v665.6c0 25.6-9.6 48-28.8 67.2zM640 896c6.4 0 9.6-3.2 16-9.6l166.4-169.6c3.2-3.2 6.4-6.4 9.6-12.8h-192v192zM832 32c0-19.2-16-32-32-32h-576c-19.2 0-32 16-32 32v832c0 19.2 16 32 32 32h352v-208c0-25.6 22.4-48 48-48v0h208v-608z" />
<glyph unicode="&#xe92f;" glyph-name="file-pdf" d="M867.2 764.8l-166.4 166.4c-19.2 19.2-41.6 28.8-67.2 28.8h-409.6c-54.4 0-96-41.6-96-96v0-832c0-54.4 41.6-96 96-96h576c54.4 0 96 41.6 96 96v665.6c0 25.6-9.6 48-28.8 67.2zM822.4 720c3.2-6.4 6.4-9.6 9.6-16h-192v192c6.4 0 9.6-3.2 16-9.6l166.4-166.4zM800 0h-576c-19.2 0-32 16-32 32v832c0 19.2 16 32 32 32h352v-208c0-25.6 22.4-48 48-48v0h208v-608c0-19.2-16-32-32-32zM755.2 342.4c-25.6 25.6-108.8 19.2-147.2 12.8-41.6 25.6-73.6 67.2-89.6 112 9.6 35.2 25.6 96 12.8 131.2-3.2 25.6-25.6 44.8-51.2 41.6-16-3.2-28.8-12.8-35.2-25.6-9.6-35.2 0-89.6 16-156.8-25.6-60.8-54.4-118.4-83.2-176-41.6-22.4-108.8-57.6-118.4-105.6-6.4-32 44.8-80 105.6-12.8 22.4 28.8 44.8 57.6 64 89.6 54.4 19.2 108.8 35.2 166.4 48 38.4-22.4 83.2-35.2 128-38.4 25.6 0 48 22.4 48 48-3.2 12.8-6.4 22.4-16 32zM297.6 163.2c19.2 32 41.6 60.8 70.4 80-44.8-67.2-70.4-80-70.4-80zM486.4 608c16 0 16-73.6 3.2-96-6.4 32-9.6 64-3.2 96zM432 291.2c22.4 41.6 41.6 83.2 57.6 128 16-32 41.6-60.8 70.4-83.2-44.8-12.8-86.4-25.6-128-44.8zM739.2 300.8c0 0-12.8-12.8-86.4 19.2 80 6.4 92.8-12.8 86.4-19.2z" />
<glyph unicode="&#xe930;" glyph-name="file-word" d="M867.2 764.8l-166.4 166.4c-19.2 19.2-41.6 28.8-67.2 28.8h-409.6c-54.4 0-96-41.6-96-96v0-832c0-54.4 41.6-96 96-96h576c54.4 0 96 41.6 96 96v665.6c0 25.6-9.6 48-28.8 67.2zM822.4 720c3.2-6.4 6.4-9.6 9.6-16h-192v192c6.4 0 9.6-3.2 16-9.6l166.4-166.4zM800 0h-576c-19.2 0-32 16-32 32v832c0 19.2 16 32 32 32h352v-208c0-25.6 22.4-48 48-48v0h208v-608c0-19.2-16-32-32-32zM691.2 492.8c-12.8-67.2-67.2-278.4-67.2-300.8-12.8 57.6 0-3.2-83.2 300.8-3.2 9.6-12.8 16-22.4 16h-12.8c-9.6 0-19.2-6.4-22.4-16-76.8-284.8-73.6-281.6-80-310.4-9.6 48 3.2 6.4-67.2 310.4-3.2 9.6-12.8 19.2-22.4 19.2h-16c-12.8 0-25.6-9.6-25.6-25.6 0-3.2 0-3.2 0-6.4 19.2-76.8 70.4-275.2 83.2-336 3.2-9.6 12.8-19.2 22.4-19.2h32c9.6 0 19.2 6.4 22.4 19.2 67.2 256 67.2 246.4 73.6 284.8 12.8-60.8 0-12.8 73.6-284.8 3.2-9.6 12.8-19.2 22.4-19.2h28.8c9.6 0 28.8 6.4 28.8 19.2l92.8 336c3.2 12.8-3.2 25.6-16 28.8-3.2 0-3.2 0-6.4 0h-12.8c-12.8 3.2-22.4-6.4-25.6-16z" />
<glyph unicode="&#xe931;" glyph-name="hotspot" d="M732.183 4.015h-45.12l-146.24 545.92c-0.359 1.111-0.906 2.070-1.609 2.891l0.009-0.011c21.748 10.533 36.48 32.437 36.48 57.781 0 35.346-28.654 64-64 64s-64-28.654-64-64c0-25.344 14.732-47.248 36.099-57.614l0.381-0.167c-0.694-0.81-1.241-1.769-1.583-2.821l-0.017-0.059-146.24-545.92h-45.12c-16.613 0-30.080-13.467-30.080-30.080s13.467-30.080 30.080-30.080h440.96c16.613 0 30.080 13.467 30.080 30.080s-13.467 30.080-30.080 30.080v0zM511.703 426.095l112.96-422.080h-225.92zM386.583 483.375c-32.113 32.038-51.981 76.339-51.981 125.28s19.868 93.242 51.978 125.277l0.003 0.003c5.474 5.514 13.059 8.928 21.44 8.928 16.683 0 30.208-13.524 30.208-30.208 0-8.302-3.349-15.822-8.77-21.282l0.002 0.002c-21.532-20.954-34.891-50.213-34.891-82.592 0-0.551 0.004-1.102 0.012-1.651l-0.001 0.083c0-0.116-0.001-0.254-0.001-0.392 0-32.227 13.088-61.397 34.238-82.485l0.003-0.003c4.496-5.226 7.234-12.077 7.234-19.567 0-16.613-13.467-30.080-30.080-30.080-7.411 0-14.195 2.68-19.438 7.123l0.044-0.036zM983.063 607.215c0.001-0.342 0.001-0.746 0.001-1.151 0-129.877-52.85-247.41-138.218-332.266l-0.023-0.023c-5.521-5.143-12.952-8.3-21.12-8.3-17.132 0-31.020 13.888-31.020 31.020 0 8.964 3.802 17.040 9.882 22.703l0.019 0.017c74.31 74.444 120.263 177.215 120.263 290.72s-45.953 216.277-120.269 290.726l0.006-0.006c-5.45 5.444-8.82 12.969-8.82 21.28s3.371 15.836 8.82 21.28v0c5.356 5.511 12.839 8.93 21.12 8.93s15.764-3.419 21.113-8.923l0.007-0.007c85.399-84.88 138.255-202.419 138.255-332.302 0-1.3-0.005-2.599-0.016-3.897l0.001 0.199zM220.823 319.215c4.496-5.226 7.234-12.077 7.234-19.567 0-16.613-13.467-30.080-30.080-30.080-7.411 0-14.195 2.68-19.438 7.123l0.044-0.036c-85.059 85.163-137.662 202.758-137.662 332.64s52.603 247.477 137.666 332.645l-0.005-0.005c5.356 5.511 12.839 8.93 21.12 8.93s15.764-3.419 21.113-8.923l0.007-0.007c5.45-5.444 8.82-12.969 8.82-21.28s-3.371-15.836-8.82-21.28v0c-73.93-74.379-119.626-176.893-119.626-290.080s45.696-215.701 119.646-290.101l-0.020 0.021zM187.543 607.215c0 0.176-0.001 0.385-0.001 0.594 0 89.491 36.735 170.402 95.949 228.476l0.052 0.050c5.356 5.511 12.839 8.93 21.12 8.93s15.764-3.419 21.113-8.923l0.007-0.007c5.45-5.444 8.82-12.969 8.82-21.28s-3.371-15.836-8.82-21.28v0c-47.647-47.849-77.103-113.845-77.103-186.72s29.457-138.871 77.113-186.729l-0.009 0.009c6.554-5.554 10.686-13.791 10.686-22.993 0-16.613-13.467-30.080-30.080-30.080-9.122 0-17.296 4.061-22.813 10.473l-0.033 0.040c-59.266 58.124-96.001 139.036-96.001 228.527 0 0.321 0 0.642 0.001 0.963v-0.050zM699.543 420.335c47.647 47.849 77.103 113.845 77.103 186.72s-29.457 138.871-77.113 186.729l0.009-0.009c-5.45 5.444-8.82 12.969-8.82 21.28s3.371 15.836 8.82 21.28v0c5.356 5.511 12.839 8.93 21.12 8.93s15.764-3.419 21.113-8.923l0.007-0.007c58.7-58.668 95.009-139.734 95.009-229.28s-36.309-170.612-95.007-229.278l-0.002-0.002c-5.199-4.407-11.983-7.087-19.394-7.087-16.613 0-30.080 13.467-30.080 30.080 0 7.49 2.738 14.341 7.267 19.607l-0.033-0.040zM594.263 691.375c-5.693 5.572-9.222 13.334-9.222 21.92 0 16.934 13.728 30.662 30.662 30.662 8.348 0 15.916-3.336 21.445-8.747l-0.005 0.005c32.113-32.038 51.981-76.339 51.981-125.28s-19.868-93.242-51.978-125.277l-0.003-0.003c-5.199-4.407-11.983-7.087-19.394-7.087-16.613 0-30.080 13.467-30.080 30.080 0 7.49 2.738 14.341 7.267 19.607l-0.033-0.040c20.471 20.556 33.314 48.721 33.918 79.885l0.002 0.115c0.010 0.558 0.015 1.216 0.015 1.876 0 32.224-13.231 61.358-34.556 82.266l-0.019 0.018z" />
<glyph unicode="&#xe932;" glyph-name="route" d="M189.76 186.916c0-17.673-14.327-32-32-32s-32 14.327-32 32c0 17.673 14.327 32 32 32s32-14.327 32-32zM838.72 310.436h-267.52c-1.887-0.102-4.095-0.16-6.317-0.16-68.925 0-124.8 55.875-124.8 124.8s55.875 124.8 124.8 124.8c2.222 0 4.431-0.058 6.624-0.173l-0.307 0.013h295.040c0.076-0.001 0.165-0.001 0.255-0.001 8.951 0 16.979 3.952 22.435 10.206l0.030 0.035c6.72 8 22.4 25.92 40.32 49.6 40.96 52.48 94.72 132.48 94.72 184.64-3.908 84.191-73.116 150.969-157.92 150.969s-154.012-66.778-157.907-150.619l-0.013-0.35c0-53.76 53.76-133.76 96-186.24h-232.96c-101.974 0-184.64-82.666-184.64-184.64s82.666-184.64 184.64-184.64v0h267.52c66.152-3.456 118.483-57.937 118.483-124.64s-52.33-121.184-118.176-124.627l-0.307-0.013h-617.6c40.96 52.48 96 132.16 96 185.92 0.001 0.243 0.002 0.531 0.002 0.82 0 22.878-4.95 44.601-13.838 64.154l0.396-0.973c-10.715 24.734-26.984 45.316-47.315 60.852l-0.365 0.268c-26.689 21.386-60.954 34.321-98.24 34.321-87.128 0-157.76-70.632-157.76-157.76 0-0.029 0-0.057 0-0.086v0.004c0-78.080 112.64-210.24 135.040-235.84 5.695-6.133 13.733-10.022 22.681-10.239l0.039-0.001h680.96c98.787 4.24 177.268 85.355 177.268 184.8s-78.482 180.561-176.887 184.787l-0.382 0.013zM768 804.196c3.045 51.618 45.649 92.325 97.76 92.325s94.715-40.707 97.747-92.057l0.013-0.268c0-34.88-51.52-112.32-97.6-169.6-45.76 58.88-97.92 136-97.92 169.6zM60.16 186.916c-0.094 1.594-0.148 3.457-0.148 5.333 0 53.019 42.981 96 96 96 30.828 0 58.262-14.531 75.826-37.117l0.162-0.216c14.71-16.782 23.684-38.912 23.684-63.138 0-0.303-0.001-0.606-0.004-0.908v0.046c0-34.88-51.84-112.32-97.92-169.28-46.080 56.96-97.6 134.4-97.6 169.28zM898.24 805.796c0-17.673-14.327-32-32-32s-32 14.327-32 32c0 17.673 14.327 32 32 32s32-14.327 32-32z" />
<glyph unicode="&#xe933;" glyph-name="crown" d="M857.6 115.2h-691.2c-7.040 0-12.8-5.76-12.8-12.8v-25.6c0-7.040 5.76-12.8 12.8-12.8h691.2c7.040 0 12.8 5.76 12.8 12.8v25.6c0 7.040-5.76 12.8-12.8 12.8zM934.4 627.2c-49.44 0-89.6-40.16-89.6-89.6 0-12.16 2.4-23.68 6.88-34.24l-90.080-54.080c-8.32-4.96-17.28-7.36-26.24-7.36-17.76 0-35.040 9.28-44.48 25.76l-119.040 208.32c18.080 16.48 29.76 40 29.76 66.4 0 49.44-40.16 89.6-89.6 89.6s-89.6-40.16-89.6-89.6c0-26.4 11.68-49.92 29.76-66.24l-119.040-208.32c-9.44-16.64-26.72-25.76-44.48-25.76-8.96 0-18.080 2.4-26.24 7.36l-90.080 54.080c4.32 10.56 6.88 22.080 6.88 34.24 0 49.44-40.16 89.6-89.6 89.6s-89.6-40.32-89.6-89.76c0-49.44 40.16-89.6 89.6-89.6 3.2 0 6.24 0.64 9.28 0.96l105.92-282.56h614.4l105.92 282.56c3.040-0.32 6.080-0.96 9.28-0.96 49.44 0 89.6 40.16 89.6 89.6s-40.16 89.6-89.6 89.6zM512 780.8c21.12 0 38.4-17.28 38.4-38.4s-17.28-38.4-38.4-38.4c-21.12 0-38.4 17.28-38.4 38.4s17.28 38.4 38.4 38.4zM89.6 499.2c-21.12 0-38.4 17.28-38.4 38.4s17.28 38.4 38.4 38.4c21.12 0 38.4-17.28 38.4-38.4s-17.28-38.4-38.4-38.4zM783.68 217.6h-543.36l-89.6 239.040 85.44-51.2c16-9.6 34.080-14.56 52.64-14.56 36.64 0 70.72 19.84 88.96 51.68l120.96 211.68c4.48-0.64 8.8-1.28 13.44-1.28s8.96 0.64 13.44 1.28l120.8-211.84c18.24-31.84 52.32-51.52 88.96-51.52 18.56 0 36.64 5.12 52.64 14.56l85.44 51.2-89.76-239.040zM934.4 499.2c-21.12 0-38.4 17.28-38.4 38.4s17.28 38.4 38.4 38.4c21.12 0 38.4-17.28 38.4-38.4s-17.28-38.4-38.4-38.4z" />
<glyph unicode="&#xe934;" glyph-name="asset-check" d="M896.043 704.106c0 33.948-13.487 66.505-37.491 90.51s-56.563 37.49-90.509 37.49c-25.318 0-50.065-7.507-71.117-21.572-21.047-14.065-37.453-34.056-47.142-57.445-9.685-23.389-12.224-49.125-7.283-73.955s17.131-47.637 35.029-65.538c17.903-17.901 40.708-30.092 65.54-35.031 24.828-4.939 50.564-2.404 73.954 7.284s43.379 26.095 57.446 47.144c14.063 21.050 21.572 45.797 21.572 71.113zM938.603 704.106c0-33.734-10.005-66.709-28.745-94.758-18.743-28.048-45.38-49.909-76.548-62.819-31.164-12.909-65.459-16.285-98.543-9.706-33.088 6.581-63.475 22.825-87.33 46.679s-40.098 54.244-46.677 87.33c-6.583 33.085-3.204 67.379 9.702 98.545 12.911 31.166 34.773 57.804 62.822 76.545s61.022 28.745 94.758 28.745c22.409 0.042 44.608-4.34 65.318-12.897s39.531-21.118 55.377-36.964c15.846-15.846 28.407-34.666 36.966-55.378 8.555-20.713 12.937-42.91 12.898-65.321v0zM725.483 706.986c-3.157 4.203-7.744 7.101-12.894 8.143-5.154 1.042-10.509 0.157-15.049-2.489s-7.953-6.866-9.583-11.861c-1.634-4.995-1.378-10.416 0.725-15.233l21.44-36.8c2.816-4.905 7.458-8.498 12.911-9.997s11.281-0.78 16.209 1.997l110.72 64c2.432 1.391 4.565 3.252 6.272 5.476s2.953 4.765 3.669 7.475c0.713 2.711 0.883 5.536 0.495 8.312s-1.327 5.447-2.756 7.857c-2.82 4.905-7.458 8.498-12.915 9.997-5.453 1.498-11.281 0.781-16.205-1.997l-92.48-53.44-10.56 18.56zM640.043 396.907c0.277 2.308 0.047 4.646-0.67 6.857-0.721 2.214-1.911 4.241-3.49 5.943l-94.080 264.64c-2.342 8.435-7.347 15.887-14.263 21.25-6.921 5.362-15.386 8.347-24.137 8.51h-247.362c-11.041-0.748-21.437-5.473-29.262-13.298s-12.55-18.221-13.298-29.262v-170.88h-85.44c-11.065-0.683-21.498-5.385-29.337-13.222s-12.541-18.274-13.223-29.338v-256c-0.212-5.931 1.228-11.802 4.16-16.96-3.371-8.090-4.796-16.858-4.16-25.6-0.349-16.905 2.724-33.707 9.033-49.395 6.309-15.684 15.725-29.935 27.681-41.89s26.206-21.372 41.893-27.682c15.687-6.31 32.488-9.382 49.393-9.033 16.893-0.303 33.673 2.799 49.34 9.126 15.667 6.323 29.899 15.74 41.846 27.686s21.364 26.18 27.689 41.847c6.325 15.667 9.428 32.448 9.125 49.34h85.12c0-33.95 13.484-66.505 37.489-90.509s56.563-37.491 90.513-37.491c33.946 0 66.505 13.487 90.509 37.491s37.491 56.559 37.491 90.509c0.154 17.783-3.575 35.388-10.927 51.58s-18.146 30.588-31.633 42.18v153.6zM256.041 661.546h247.362l94.080-264.64v-34.24h-158.080c-9.054 1.024-17.78 3.972-25.602 8.64l-144.96 111.040c-1.703 1.583-3.731 2.773-5.941 3.49-2.211 0.721-4.551 0.947-6.859 0.67v175.040zM213.481 64.107c-22.634 0.085-44.317 9.114-60.322 25.118s-25.034 37.687-25.118 60.322c-0.372 15.189 4.112 30.097 12.8 42.56 7.174 12.937 17.678 23.714 30.423 31.219s27.267 11.465 42.057 11.465c14.791 0 29.312-3.959 42.057-11.465s23.249-18.283 30.423-31.219c8.688-12.463 13.172-27.371 12.8-42.56 0-22.605-8.958-44.288-24.912-60.301-15.954-16.017-37.604-25.054-60.208-25.139zM435.243 192.107h-102.402c-8.23 25.079-24.239 46.882-45.702 62.246s-47.264 23.488-73.658 23.194c-15.801 0.247-31.494-2.65-46.163-8.529s-28.021-14.618-39.277-25.711v204.8h115.2l12.8-8.64 98.24-76.8 33.92-25.6c14.687-11.226 32.716-17.199 51.202-16.96h158.080v-51.2c-13.824 4.864-28.254 7.774-42.88 8.64-26.394 0.294-52.198-7.829-73.66-23.194-21.466-15.364-37.474-37.167-45.7-62.246v0zM554.603 64.107c-22.605 0.085-44.258 9.122-60.211 25.139-15.953 16.013-24.909 37.696-24.909 60.301-0.375 15.189 4.109 30.097 12.8 42.56 7.121 12.932 17.596 23.71 30.323 31.198 12.723 7.488 27.23 11.413 41.997 11.362 15.292 0.418 30.319-4.066 42.88-12.8 18.185-10.231 31.885-26.897 38.4-46.72 3.371-8.090 4.796-16.858 4.16-25.6-0.085-22.635-9.114-44.318-25.118-60.322-16.009-16.004-37.692-25.033-60.322-25.118zM746.603 469.547c5.683 0 11.136-2.257 15.159-6.281 4.019-4.019 6.281-9.472 6.281-15.159v-298.56h149.44c5.683 0 11.136-2.257 15.159-6.281 4.019-4.019 6.281-9.472 6.281-15.159s-2.261-11.14-6.281-15.159c-4.023-4.023-9.476-6.281-15.159-6.281h-170.88c-5.632 0.085-11.004 2.381-14.955 6.391s-6.17 9.417-6.165 15.049v320c-0.004 5.632 2.214 11.038 6.165 15.049s9.323 6.306 14.955 6.391v0z" />
<glyph unicode="&#xe935;" glyph-name="asset-defect" d="M862.758 562.185c-28.049-18.741-61.026-28.745-94.758-28.745-22.409-0.042-44.608 4.34-65.318 12.897-20.715 8.556-39.535 21.118-55.381 36.965s-28.407 34.665-36.962 55.377c-8.559 20.713-12.941 42.91-12.898 65.321 0 33.734 10.005 66.71 28.745 94.758 18.743 28.049 45.38 49.91 76.544 62.819 31.168 12.909 65.459 16.287 98.547 9.706 33.084-6.581 63.475-22.825 87.33-46.679 23.851-23.853 40.094-54.244 46.677-87.33 6.579-33.085 3.204-67.379-9.707-98.545s-34.769-57.804-62.818-76.545zM839.113 810.428c-21.047 14.065-45.798 21.572-71.113 21.572-33.946 0-66.505-13.486-90.509-37.49s-37.491-56.562-37.491-90.51c0-25.316 7.505-50.063 21.572-71.113 14.063-21.050 34.057-37.456 57.446-47.144 23.386-9.688 49.122-12.223 73.954-7.284 24.828 4.939 47.637 17.13 65.536 35.031 17.903 17.901 30.093 40.709 35.034 65.538 4.937 24.829 2.402 50.566-7.287 73.955-9.685 23.389-26.091 43.38-47.142 57.445zM744 738.24c0-19.52 2.24-39.040 4.8-58.24 0.482-4.248 2.389-8.207 5.41-11.23s6.98-4.93 11.23-5.41c2.526-0.36 5.094-0.212 7.565 0.433 2.466 0.645 4.779 1.775 6.805 3.324s3.721 3.486 4.992 5.698c1.267 2.212 2.082 4.655 2.398 7.185 2.56 19.2 3.84 38.72 4.8 58.24v28.8c1.515 10.042-0.401 20.302-5.44 29.12-1.771 2.362-3.81 4.509-6.080 6.4-5.116 3.321-11.324 4.51-17.301 3.314-5.982-1.196-11.255-4.682-14.699-9.714-5.039-8.818-6.955-19.078-5.44-29.12l0.96-28.8zM768 637.76c-3.797 0-7.509-1.126-10.667-3.236s-5.619-5.108-7.070-8.617c-1.455-3.508-1.835-7.369-1.097-11.093 0.742-3.724 2.573-7.145 5.257-9.831s6.106-4.514 9.83-5.254c3.725-0.741 7.586-0.361 11.093 1.093s6.507 3.914 8.619 7.072c2.108 3.157 3.234 6.869 3.234 10.667 0 5.092-2.022 9.976-5.623 13.577s-8.482 5.623-13.577 5.623zM640 396.8c0.277 2.308 0.051 4.646-0.67 6.861-0.717 2.21-1.907 4.237-3.49 5.939l-94.080 264.64c-2.342 8.434-7.343 15.887-14.263 21.25s-15.386 8.347-24.137 8.51h-247.36c-11.041-0.748-21.437-5.473-29.262-13.298s-12.55-18.221-13.298-29.262v-170.88h-85.44c-11.065-0.683-21.498-5.385-29.337-13.222s-12.541-18.274-13.223-29.338v-256c-0.212-5.931 1.228-11.802 4.16-16.96-3.371-8.090-4.796-16.858-4.16-25.6-0.349-16.905 2.724-33.707 9.033-49.391 6.309-15.689 15.725-29.939 27.681-41.894s26.206-21.372 41.893-27.682c15.687-6.31 32.488-9.382 49.393-9.033 16.893-0.303 33.673 2.799 49.34 9.126 15.667 6.323 29.899 15.74 41.846 27.686s21.364 26.18 27.689 41.847c6.325 15.667 9.428 32.448 9.125 49.34h85.12c0-33.946 13.487-66.505 37.491-90.509s56.559-37.491 90.509-37.491c33.946 0 66.505 13.487 90.509 37.491s37.491 56.563 37.491 90.509c0.154 17.783-3.575 35.388-10.927 51.58s-18.146 30.588-31.633 42.18v153.6zM256 661.44h247.36l94.080-264.64v-34.24h-158.080c-9.050 1.024-17.779 3.972-25.6 8.64l-144.96 111.040c-1.704 1.583-3.731 2.773-5.941 3.49-2.211 0.721-4.551 0.947-6.859 0.67v175.040zM213.44 64c-22.634 0.085-44.317 9.114-60.322 25.118s-25.034 37.687-25.118 60.322c-0.372 15.189 4.112 30.097 12.8 42.56 7.173 12.937 17.678 23.714 30.423 31.219s27.267 11.465 42.057 11.465c14.791 0 29.312-3.959 42.057-11.465s23.249-18.283 30.423-31.219c8.688-12.463 13.172-27.371 12.8-42.56 0-22.605-8.958-44.288-24.912-60.301-15.954-16.017-37.604-25.054-60.208-25.139zM435.2 192h-102.4c-8.23 25.079-24.239 46.882-45.702 62.246s-47.264 23.488-73.658 23.194c-15.802 0.252-31.494-2.65-46.164-8.529s-28.021-14.618-39.276-25.711v204.8h115.2l12.8-8.64 98.24-76.8 33.92-25.6c14.687-11.226 32.716-17.199 51.2-16.96h158.080v-51.2c-13.82 4.864-28.254 7.774-42.88 8.64-26.394 0.294-52.194-7.829-73.66-23.194-21.461-15.364-37.47-37.167-45.7-62.246zM554.56 64c-22.605 0.085-44.254 9.122-60.207 25.139-15.957 16.013-24.913 37.696-24.913 60.301-0.371 15.189 4.113 30.097 12.8 42.56 7.125 12.932 17.6 23.71 30.323 31.198s27.23 11.413 41.997 11.362c15.292 0.418 30.319-4.066 42.88-12.8 18.185-10.231 31.885-26.897 38.4-46.72 3.371-8.090 4.796-16.858 4.16-25.6-0.085-22.635-9.114-44.318-25.118-60.322s-37.687-25.033-60.322-25.118zM768 149.44h149.44c5.687 0 11.14-2.257 15.159-6.281 4.023-4.019 6.281-9.472 6.281-15.159s-2.257-11.14-6.281-15.159c-4.019-4.023-9.472-6.281-15.159-6.281h-170.88c-5.632 0.085-11.004 2.381-14.955 6.391s-6.165 9.417-6.165 15.049v320c-0.371 3.012-0.098 6.071 0.802 8.973 0.9 2.897 2.406 5.572 4.42 7.846 2.010 2.274 4.484 4.096 7.253 5.342 2.765 1.25 5.769 1.894 8.802 1.894 3.038 0 6.042-0.644 8.806-1.894 2.769-1.246 5.244-3.068 7.253-5.342 2.014-2.274 3.52-4.949 4.42-7.846 0.9-2.901 1.173-5.961 0.802-8.973v-298.56z" />
<glyph unicode="&#xe936;" glyph-name="asset-takout" d="M768 576c-70.694 0-128 57.308-128 128s57.306 128 128 128c70.694 0 128-57.308 128-128s-57.306-128-128-128zM768 533.333c94.255 0 170.667 76.41 170.667 170.667s-76.412 170.667-170.667 170.667c-94.255 0-170.667-76.41-170.667-170.667s76.412-170.667 170.667-170.667zM673.621 717.593c-0.708-0.48-1.382-1.003-2.022-1.568-3.84-3.393-5.999-7.994-5.999-12.793s2.159-9.4 5.999-12.793c0.708-0.624 1.459-1.198 2.253-1.719l56.055-49.17c3.938-2.747 8.896-4.092 13.901-3.77s9.694 2.29 13.137 5.515c3.443 3.224 5.397 7.471 5.47 11.903 0.077 4.433-1.732 8.729-5.065 12.043l-22.528 19.901h115.098c5.431 0 10.641 1.906 14.481 5.299s5.999 7.994 5.999 12.793c0 4.798-2.159 9.4-5.999 12.793s-9.050 5.299-14.481 5.299h-113.233l20.663 20.262c1.958 1.624 3.52 3.586 4.587 5.764s1.621 4.527 1.621 6.9c0 2.374-0.555 4.722-1.621 6.9s-2.628 4.14-4.587 5.764c-1.903 1.696-4.169 3.042-6.665 3.96s-5.171 1.391-7.876 1.391c-2.705 0-5.38-0.473-7.876-1.391s-4.762-2.264-6.665-3.96l-54.647-49.322zM640 396.8c0 4.267 0 8.533-4.267 12.8l-93.867 264.533c-4.267 17.067-21.333 29.867-38.4 29.867h-247.467c-21.333 0-42.667-21.333-42.667-42.667v-170.667h-85.333c-21.333 0-42.667-21.333-42.667-42.667v-256c0-4.267 0-8.533 4.267-17.067-4.267-8.533-4.267-17.067-4.267-25.6 0-72.533 55.467-128 128-128s128 55.467 128 128h85.333c0-72.533 55.467-128 128-128s128 55.467 128 128c0 38.4-17.067 72.533-42.667 93.867v153.6zM256 661.333h247.467l93.867-264.533v-34.133h-157.867c-8.533 0-17.067 4.267-25.6 8.533l-145.067 110.933c-4.267 4.267-8.533 4.267-12.8 4.267v174.933zM213.333 64c-46.933 0-85.333 38.4-85.333 85.333 0 17.067 4.267 29.867 12.8 42.667 12.8 25.6 42.667 42.667 72.533 42.667s59.733-17.067 72.533-42.667c8.533-12.8 12.8-25.6 12.8-42.667 0-46.933-38.4-85.333-85.333-85.333zM435.2 192h-102.4c-17.067 51.2-64 85.333-119.467 85.333-34.133 0-64-12.8-85.333-34.133v204.8h115.2l12.8-8.533 98.133-76.8 34.133-25.6c17.067-12.8 34.133-17.067 51.2-17.067h157.867v-51.2c-12.8 4.267-29.867 8.533-42.667 8.533-55.467 0-102.4-34.133-119.467-85.333zM554.667 64c-46.933 0-85.333 38.4-85.333 85.333 0 17.067 4.267 29.867 12.8 42.667 12.8 25.6 42.667 42.667 72.533 42.667 17.067 0 29.867-4.267 42.667-12.8 17.067-8.533 34.133-29.867 38.4-46.933 4.267-8.533 4.267-17.067 4.267-25.6 0-46.933-38.4-85.333-85.333-85.333zM746.667 469.333c11.78 0 21.333-9.553 21.333-21.333v-298.667h149.333c11.78 0 21.333-9.553 21.333-21.333s-9.553-21.333-21.333-21.333h-170.667c-11.78 0-21.333 9.553-21.333 21.333v320c0 11.78 9.553 21.333 21.333 21.333z" />
<glyph unicode="&#xe937;" glyph-name="asset" d="M635.733 409.6c4.267-4.267 4.267-8.533 4.267-12.8v-153.6c25.6-21.333 42.667-55.467 42.667-93.867 0-72.533-55.467-128-128-128s-128 55.467-128 128h-85.333c0-72.533-55.467-128-128-128s-128 55.467-128 128c0 8.533 0 17.067 4.267 25.6-4.267 8.533-4.267 12.8-4.267 17.067v256c0 21.333 21.333 42.667 42.667 42.667h85.333v170.667c0 21.333 21.333 42.667 42.667 42.667h247.467c17.067 0 34.133-12.8 38.4-29.867l93.867-264.533zM503.467 661.333h-247.467v-174.933c4.267 0 8.533 0 12.8-4.267l145.067-110.933c8.533-4.267 17.067-8.533 25.6-8.533h157.867v34.133l-93.867 264.533zM128 149.333c0-46.933 38.4-85.333 85.333-85.333s85.333 38.4 85.333 85.333c0 17.067-4.267 29.867-12.8 42.667-12.8 25.6-42.667 42.667-72.533 42.667s-59.733-17.067-72.533-42.667c-8.533-12.8-12.8-25.6-12.8-42.667zM332.8 192h102.4c17.067 51.2 64 85.333 119.467 85.333 12.8 0 29.867-4.267 42.667-8.533v51.2h-157.867c-17.067 0-34.133 4.267-51.2 17.067l-34.133 25.6-98.133 76.8-12.8 8.533h-115.2v-204.8c21.333 21.333 51.2 34.133 85.333 34.133 55.467 0 102.4-34.133 119.467-85.333zM469.333 149.333c0-46.933 38.4-85.333 85.333-85.333s85.333 38.4 85.333 85.333c0 8.533 0 17.067-4.267 25.6-4.267 17.067-21.333 38.4-38.4 46.933-12.8 8.533-25.6 12.8-42.667 12.8-29.867 0-59.733-17.067-72.533-42.667-8.533-12.8-12.8-25.6-12.8-42.667zM768 682.667c0 12.8-8.533 21.333-21.333 21.333s-21.333-8.533-21.333-21.333v-554.667c0-8.533 0-12.8 4.267-17.067 2.133 0 5.333-1.067 8.533-2.133s6.4-2.133 8.533-2.133h170.667c12.8 0 21.333 8.533 21.333 21.333s-8.533 21.333-21.333 21.333h-149.333v533.333z" />
<glyph unicode="&#xe938;" glyph-name="trailer-check" d="M862.758 562.185c-28.049-18.741-61.026-28.745-94.758-28.745-22.409-0.042-44.608 4.34-65.318 12.897-20.715 8.556-39.535 21.118-55.381 36.965s-28.407 34.665-36.962 55.377c-8.559 20.713-12.941 42.91-12.898 65.321 0 33.734 10.001 66.71 28.745 94.758s45.38 49.91 76.544 62.819c31.168 12.909 65.459 16.287 98.547 9.706 33.084-6.581 63.475-22.825 87.33-46.679 23.851-23.853 40.094-54.244 46.677-87.33 6.579-33.085 3.204-67.379-9.707-98.545s-34.769-57.804-62.818-76.545zM839.113 810.428c-21.047 14.065-45.798 21.572-71.113 21.572-33.946 0-66.505-13.486-90.509-37.49s-37.491-56.562-37.491-90.51c0-25.316 7.505-50.063 21.572-71.113 14.063-21.050 34.057-37.456 57.442-47.144 23.39-9.688 49.126-12.223 73.958-7.284 24.828 4.939 47.637 17.13 65.536 35.031 17.903 17.901 30.093 40.709 35.034 65.538 4.937 24.829 2.402 50.566-7.287 73.955-9.685 23.389-26.091 43.38-47.142 57.445zM715.465 642.388c-2.193 1.703-4.023 3.829-5.385 6.252l-21.76 37.12c-1.425 2.385-2.355 5.032-2.739 7.784s-0.213 5.552 0.503 8.237c0.713 2.684 1.958 5.198 3.665 7.393 1.702 2.195 3.827 4.026 6.251 5.386 2.436 1.439 5.129 2.381 7.932 2.774 2.799 0.393 5.649 0.227 8.388-0.487 2.735-0.714 5.303-1.962 7.556-3.672s4.143-3.85 5.564-6.295l10.56-18.56 92.48 53.12c2.411 1.431 5.082 2.368 7.859 2.757 2.773 0.388 5.598 0.22 8.311-0.495 2.709-0.715 5.248-1.962 7.475-3.669 2.223-1.707 4.083-3.839 5.474-6.273 1.425-2.385 2.355-5.032 2.739-7.784s0.213-5.552-0.499-8.237c-0.717-2.684-1.963-5.198-3.669-7.393-1.702-2.195-3.827-4.026-6.251-5.386l-111.040-64c-2.385-1.424-5.030-2.356-7.782-2.74s-5.555-0.214-8.239 0.502c-2.684 0.716-5.197 1.962-7.394 3.666zM170.56 490.56v-85.12c0-11.371 4.518-22.281 12.559-30.319 8.041-8.043 18.948-12.561 30.321-12.561h384c11.315 0.085 22.14 4.638 30.114 12.672s12.446 18.893 12.446 30.208v85.12c0 11.315-4.471 22.174-12.446 30.208s-18.799 12.588-30.114 12.672h-384c-5.631 0-11.207-1.109-16.41-3.264s-9.929-5.312-13.911-9.297c-3.982-3.981-7.14-8.708-9.295-13.909s-3.264-10.778-3.264-16.41zM597.44 405.44h-384v85.12h384v-85.12zM909.184 254.455c2.62 1.062 5.427 1.587 8.256 1.545 2.799 0 5.572-0.555 8.158-1.638 2.581-1.079 4.924-2.667 6.891-4.659 1.967-1.997 3.516-4.361 4.557-6.963 1.041-2.598 1.557-5.38 1.515-8.179v-106.56c0.043-2.799-0.474-5.581-1.515-8.179-1.041-2.603-2.59-4.966-4.557-6.963-1.967-1.993-4.309-3.58-6.891-4.659-2.586-1.084-5.359-1.638-8.158-1.638h-498.56c-8.969-24.713-25.328-46.059-46.855-61.15-21.527-15.087-47.177-23.181-73.465-23.181s-51.938 8.094-73.465 23.181c-21.527 15.091-37.887 36.437-46.855 61.15h-28.8c-16.974 0-33.253 6.741-45.255 18.743s-18.745 28.284-18.745 45.257v512c0 16.974 6.743 33.253 18.745 45.255s28.281 18.745 45.255 18.745h362.56c3.012 0.37 6.071 0.096 8.973-0.804 2.897-0.9 5.572-2.406 7.846-4.418s4.096-4.483 5.342-7.252c1.25-2.768 1.894-5.77 1.894-8.806s-0.644-6.038-1.894-8.806c-1.246-2.769-3.068-5.24-5.342-7.252s-4.949-3.518-7.846-4.418c-2.901-0.9-5.961-1.174-8.973-0.804h-362.56c-2.828 0.043-5.635-0.482-8.256-1.544s-5.001-2.64-7.001-4.639c-1.999-2-3.577-4.381-4.639-7.001s-1.587-5.428-1.544-8.256v-512c0-2.799 0.556-5.572 1.638-8.158 1.082-2.581 2.666-4.924 4.661-6.891s4.361-3.516 6.961-4.557c2.599-1.041 5.38-1.557 8.18-1.515h21.12c0 33.946 13.486 66.505 37.49 90.509s56.562 37.491 90.51 37.491c33.948 0 66.505-13.487 90.51-37.491s37.49-56.563 37.49-90.509h341.44v298.56c-0.371 3.012-0.098 6.071 0.802 8.973 0.9 2.897 2.406 5.572 4.42 7.846 2.010 2.274 4.484 4.096 7.253 5.342 2.765 1.25 5.769 1.894 8.806 1.894 3.034 0 6.037-0.644 8.802-1.894 2.769-1.246 5.244-3.068 7.253-5.342 2.014-2.274 3.52-4.949 4.42-7.846 0.9-2.901 1.173-5.961 0.802-8.973v-298.56h85.44v85.12c-0.043 2.829 0.482 5.636 1.545 8.256s2.641 5.001 4.638 7.002c2.001 1.997 4.382 3.575 7.002 4.638zM246.535 81.681c14.922-11.46 33.21-17.677 52.025-17.681 14.983-0.068 29.716 3.831 42.701 11.311 12.984 7.475 23.756 18.257 31.219 31.249 9.443 16.273 13.25 35.209 10.83 53.871-2.42 18.658-10.932 35.998-24.214 49.323s-30.592 21.897-49.242 24.38c-18.651 2.483-37.6-1.263-53.905-10.65s-29.057-23.898-36.273-41.271c-7.217-17.378-8.496-36.651-3.639-54.827 4.857-18.18 15.578-34.244 30.5-45.705z" />
<glyph unicode="&#xe939;" glyph-name="trailer-defect" d="M768 533.44c33.732 0 66.709 10.003 94.758 28.745s49.907 45.379 62.818 76.545c12.911 31.166 16.286 65.46 9.707 98.545-6.583 33.085-22.827 63.476-46.677 87.33-23.855 23.853-54.246 40.097-87.33 46.679-33.088 6.581-67.379 3.203-98.547-9.706-31.164-12.909-57.801-34.77-76.544-62.819-18.739-28.048-28.745-61.024-28.745-94.758-0.043-22.41 4.339-44.608 12.898-65.321 8.555-20.712 21.116-39.531 36.962-55.377s34.667-28.408 55.381-36.965c20.71-8.557 42.91-12.94 65.318-12.897zM768 832c25.314 0 50.065-7.507 71.113-21.572 21.052-14.065 37.457-34.056 47.142-57.445 9.69-23.389 12.224-49.126 7.287-73.955-4.941-24.829-17.131-47.637-35.034-65.538-17.899-17.901-40.708-30.092-65.536-35.031-24.832-4.939-50.569-2.404-73.954 7.284-23.39 9.688-43.383 26.094-57.446 47.144-14.067 21.050-21.572 45.797-21.572 71.113 0 33.948 13.487 66.505 37.491 90.51s56.563 37.49 90.509 37.49zM744 738.24c0-19.52 2.24-39.040 4.8-58.24 0.482-4.248 2.389-8.207 5.41-11.23s6.98-4.93 11.23-5.41c2.526-0.36 5.094-0.212 7.565 0.433 2.466 0.645 4.779 1.775 6.805 3.324s3.721 3.486 4.992 5.698c1.267 2.212 2.082 4.655 2.398 7.185 2.56 19.2 3.84 38.72 4.8 58.24v28.8c1.515 10.042-0.401 20.302-5.44 29.12-1.771 2.362-3.81 4.509-6.080 6.4-5.116 3.321-11.324 4.51-17.301 3.314-5.982-1.196-11.255-4.682-14.699-9.714-5.039-8.818-6.955-19.078-5.44-29.12l0.96-28.8zM170.56 490.56v-85.12c0-11.371 4.518-22.281 12.559-30.319 8.041-8.043 18.948-12.561 30.321-12.561h384c11.315 0.085 22.14 4.638 30.114 12.672s12.446 18.893 12.446 30.208v85.12c0 11.315-4.471 22.174-12.446 30.208s-18.799 12.588-30.114 12.672h-384c-5.631 0-11.207-1.109-16.41-3.264s-9.929-5.312-13.911-9.297c-3.982-3.981-7.141-8.708-9.295-13.909s-3.264-10.778-3.264-16.41zM597.44 405.44h-384v85.12h384v-85.12zM757.333 634.524c3.157 2.11 6.869 3.236 10.667 3.236 5.094 0 9.975-2.023 13.577-5.623s5.623-8.484 5.623-13.577c0-3.797-1.126-7.509-3.234-10.667-2.112-3.157-5.111-5.618-8.619-7.072s-7.369-1.833-11.093-1.092c-3.725 0.741-7.147 2.569-9.83 5.254s-4.514 6.106-5.257 9.831c-0.738 3.724-0.358 7.585 1.097 11.093 1.451 3.508 3.913 6.507 7.070 8.617zM909.184 254.455c2.62 1.062 5.427 1.587 8.256 1.545 2.799 0 5.572-0.555 8.158-1.638 2.581-1.079 4.924-2.667 6.891-4.659 1.967-1.997 3.516-4.361 4.557-6.963 1.041-2.598 1.557-5.38 1.515-8.179v-106.56c0.043-2.799-0.474-5.581-1.515-8.179-1.041-2.603-2.59-4.966-4.557-6.963-1.967-1.993-4.309-3.58-6.891-4.659-2.586-1.084-5.359-1.638-8.158-1.638h-498.56c-8.969-24.713-25.328-46.059-46.855-61.15-21.527-15.087-47.177-23.181-73.465-23.181s-51.938 8.094-73.465 23.181c-21.527 15.091-37.886 36.437-46.855 61.15h-28.8c-16.974 0-33.252 6.741-45.255 18.743s-18.745 28.284-18.745 45.257v512c0 16.974 6.743 33.253 18.745 45.255s28.281 18.745 45.255 18.745h362.56c3.012 0.37 6.071 0.096 8.973-0.804 2.897-0.9 5.572-2.406 7.846-4.418s4.096-4.483 5.342-7.252c1.25-2.768 1.894-5.77 1.894-8.806s-0.644-6.038-1.894-8.806c-1.246-2.769-3.068-5.24-5.342-7.252s-4.949-3.518-7.846-4.418c-2.901-0.9-5.961-1.174-8.973-0.804h-362.56c-2.828 0.043-5.635-0.482-8.256-1.544s-5.001-2.64-7.001-4.639c-2-2-3.577-4.381-4.64-7.001s-1.587-5.428-1.544-8.256v-512c0-2.799 0.556-5.572 1.638-8.158 1.081-2.581 2.665-4.924 4.661-6.891s4.361-3.516 6.961-4.557c2.599-1.041 5.38-1.557 8.18-1.515h21.12c0 33.946 13.486 66.505 37.49 90.509s56.562 37.491 90.51 37.491c33.948 0 66.505-13.487 90.51-37.491s37.49-56.563 37.49-90.509h341.44v298.56c-0.371 3.012-0.098 6.071 0.802 8.973 0.9 2.897 2.406 5.572 4.42 7.846 2.010 2.274 4.484 4.096 7.253 5.342 2.765 1.25 5.769 1.894 8.806 1.894 3.034 0 6.037-0.644 8.802-1.894 2.769-1.246 5.244-3.068 7.253-5.342 2.014-2.274 3.52-4.949 4.42-7.846 0.9-2.901 1.173-5.961 0.802-8.973v-298.56h85.44v85.12c-0.043 2.829 0.482 5.636 1.545 8.256s2.641 5.001 4.638 7.002c2.001 1.997 4.382 3.575 7.002 4.638zM327.857 67.614c19.415 7.023 35.615 20.864 45.583 38.946h-0.96c7.566 13.022 11.541 27.819 11.52 42.88-0.432 20.642-8.352 40.422-22.285 55.659s-32.929 24.892-53.45 27.162c-20.521 2.274-41.168-2.991-58.096-14.814-16.928-11.819-28.983-29.389-33.92-49.434-4.937-20.049-2.42-41.207 7.084-59.537s25.345-32.58 44.574-40.094c19.229-7.518 40.535-7.791 59.95-0.768z" />
<glyph unicode="&#xe93a;" glyph-name="trailer-takout" d="M896 704c0 70.692-57.306 128-128 128s-128-57.308-128-128c0-70.692 57.306-128 128-128s128 57.308 128 128zM938.667 704c0-94.257-76.412-170.667-170.667-170.667s-170.667 76.41-170.667 170.667c0 94.257 76.412 170.667 170.667 170.667s170.667-76.41 170.667-170.667zM671.599 716.025c0.64 0.564 1.314 1.088 2.022 1.568l54.647 49.322c1.903 1.696 4.169 3.042 6.665 3.96s5.171 1.391 7.876 1.391c2.705 0 5.38-0.473 7.876-1.391s4.762-2.264 6.665-3.96c1.958-1.624 3.52-3.586 4.587-5.764s1.621-4.527 1.621-6.9c0-2.374-0.555-4.722-1.621-6.9s-2.628-4.14-4.587-5.764l-20.663-20.262h113.233c5.431 0 10.641-1.906 14.481-5.299s5.999-7.994 5.999-12.793c0-4.798-2.159-9.4-5.999-12.793s-9.050-5.299-14.481-5.299h-115.098l22.528-19.901c3.332-3.314 5.141-7.61 5.065-12.043-0.073-4.432-2.027-8.679-5.47-11.903s-8.132-5.192-13.137-5.515c-5.005-0.323-9.963 1.022-13.901 3.77l-56.055 49.17c-0.794 0.521-1.545 1.095-2.253 1.719-3.84 3.393-5.999 7.994-5.999 12.793s2.159 9.4 5.999 12.793zM170.667 490.667v-85.333c0-11.315 4.495-22.17 12.497-30.17s18.854-12.497 30.17-12.497h384c11.315 0 22.17 4.497 30.17 12.497s12.497 18.854 12.497 30.17v85.333c0 11.315-4.497 22.17-12.497 30.17s-18.854 12.497-30.17 12.497h-384c-11.316 0-22.168-4.497-30.17-12.497s-12.497-18.854-12.497-30.17zM597.333 405.333h-384v85.333h384v-85.333zM902.246 249.754c4.002 3.998 9.429 6.246 15.087 6.246s11.085-2.249 15.087-6.246c3.998-4.002 6.246-9.429 6.246-15.087v-106.667c0-5.658-2.249-11.085-6.246-15.087-4.002-3.998-9.429-6.246-15.087-6.246h-498.347c-8.969-24.713-25.328-46.059-46.855-61.15-21.527-15.087-47.177-23.181-73.465-23.181s-51.938 8.094-73.465 23.181c-21.527 15.091-37.887 36.437-46.855 61.15h-29.013c-16.974 0-33.253 6.741-45.255 18.743s-18.745 28.284-18.745 45.257v512c0 16.974 6.743 33.253 18.745 45.255s28.281 18.745 45.255 18.745h362.667c5.658 0 11.085-2.248 15.087-6.249 3.998-4 6.246-9.427 6.246-15.085s-2.249-11.084-6.246-15.085c-4.002-4.001-9.429-6.249-15.087-6.249h-362.667c-5.658 0-11.084-2.248-15.085-6.249s-6.249-9.427-6.249-15.085v-512c0-5.658 2.248-11.085 6.249-15.087 4-3.998 9.427-6.246 15.085-6.246h21.333c0 33.946 13.486 66.505 37.49 90.509s56.562 37.491 90.51 37.491c33.948 0 66.505-13.487 90.51-37.491s37.49-56.563 37.49-90.509h341.333v298.667c0 5.658 2.249 11.085 6.246 15.087 4.002 3.998 9.429 6.246 15.087 6.246s11.085-2.249 15.087-6.246c3.998-4.002 6.246-9.429 6.246-15.087v-298.667h85.333v85.333c0 5.658 2.249 11.085 6.246 15.087zM246.692 81.587c14.916-11.426 33.186-17.609 51.974-17.587 14.964 0.017 29.661 3.964 42.617 11.456 12.955 7.488 23.714 18.253 31.196 31.211 9.394 16.273 13.156 35.187 10.701 53.815s-10.988 35.925-24.277 49.207c-13.289 13.282-30.59 21.807-49.219 24.252s-37.544-1.327-53.81-10.731c-16.267-9.399-28.975-23.91-36.154-41.271-7.179-17.365-8.427-36.612-3.55-54.754 4.877-18.146 15.605-34.172 30.522-45.598z" />
<glyph unicode="&#xe93b;" glyph-name="trailer" d="M597.333 533.333h-384c-11.316 0-22.168-4.497-30.17-12.497s-12.497-18.854-12.497-30.17v-85.333c0-11.315 4.495-22.17 12.497-30.17s18.854-12.497 30.17-12.497h384c11.315 0 22.17 4.497 30.17 12.497s12.497 18.854 12.497 30.17v85.333c0 11.315-4.497 22.17-12.497 30.17s-18.854 12.497-30.17 12.497zM597.333 405.333h-384v85.333h384v-85.333zM917.333 256c-5.658 0-11.085-2.249-15.087-6.246-3.998-4.002-6.246-9.429-6.246-15.087v-85.333h-128v512c0 11.316-4.497 22.168-12.497 30.17s-18.854 12.497-30.17 12.497h-597.333c-11.316 0-22.168-4.495-30.17-12.497s-12.497-18.854-12.497-30.17v-512c0-11.315 4.495-22.17 12.497-30.17s18.854-12.497 30.17-12.497h50.347c8.969-24.713 25.328-46.059 46.855-61.15 21.527-15.087 47.177-23.181 73.465-23.181s51.938 8.094 73.465 23.181c21.527 15.091 37.886 36.437 46.855 61.15h498.347c5.658 0 11.085 2.249 15.087 6.246 3.998 4.002 6.246 9.429 6.246 15.087v106.667c0 5.658-2.249 11.085-6.246 15.087-4.002 3.998-9.429 6.246-15.087 6.246zM298.667 64c-18.789-0.021-37.058 6.161-51.974 17.587s-25.645 27.452-30.522 45.598c-4.877 18.142-3.629 37.389 3.55 54.754 7.179 17.361 19.887 31.872 36.154 41.271 16.267 9.404 35.182 13.175 53.81 10.731s35.93-10.97 49.219-24.252c13.289-13.282 21.823-30.579 24.277-49.207s-1.306-37.542-10.701-53.815c-7.482-12.958-18.241-23.723-31.196-31.211-12.956-7.492-27.653-11.439-42.617-11.456zM682.667 149.333h-256c0 33.946-13.486 66.505-37.49 90.509s-56.562 37.491-90.51 37.491c-33.948 0-66.505-13.487-90.51-37.491s-37.49-56.563-37.49-90.509h-42.667v512h597.333v-512h-42.667z" />
<glyph unicode="&#xe93c;" glyph-name="vehicle-check" d="M170.667 759.653c2.145 1.526 4.867 3.353 8.226 5.417 11.648 7.162 31.004 17.215 60.514 27.44 59.048 20.462 158.781 41.623 318.627 41.623 11.785 0 21.333 9.551 21.333 21.333s-9.549 21.333-21.333 21.333c-163.518 0-268.136-21.638-332.597-43.975-32.245-11.174-54.433-22.52-68.89-31.408-7.225-4.442-12.506-8.262-16.133-11.126-1.813-1.431-3.211-2.622-4.231-3.53-0.509-0.454-0.925-0.837-1.249-1.144l-0.42-0.403-0.16-0.157-0.068-0.067-0.031-0.031-6.254-6.273v-160.020c-23.564 0-42.667-19.103-42.667-42.667v-170.667c0-23.565 19.103-42.667 42.667-42.667v-192.111c0-35.349 28.654-64 64-64h21.333v-42.556c0-23.565 19.103-42.667 42.667-42.667h85.333c23.564 0 42.667 19.102 42.667 42.667v42.556h256v-42.556c0-23.565 19.102-42.667 42.667-42.667h85.333c23.565 0 42.667 19.102 42.667 42.667v42.556h23.578c35.349 0 64 28.651 64 64v303.155c0 11.785-9.549 21.333-21.333 21.333-11.78 0-21.333-9.549-21.333-21.333v-303.155c0-11.785-9.549-21.333-21.333-21.333h-23.578v0.111l-618.667-0.111c-11.782 0-21.333 9.549-21.333 21.333v193.233h682.667v42.667h-682.667v220.071h366.033c11.785 0 21.333 9.551 21.333 21.333s-9.549 21.333-21.333 21.333h-366.033v90.46zM149.333 769.869c-15.108 15.061-15.094 15.076-15.079 15.090l15.079-15.090zM682.667 64v42.556h85.333v-42.556h-85.333zM256 106.556h85.333v-42.556h-85.333v42.556zM287.439 223.437c-22.324 0-40.421 18.099-40.421 40.422s18.097 40.422 40.421 40.422c22.324 0 40.421-18.099 40.421-40.422s-18.097-40.422-40.421-40.422zM732.070 263.859c0 22.323-18.099 40.422-40.422 40.422s-40.418-18.099-40.418-40.422c0-22.323 18.095-40.422 40.418-40.422s40.422 18.099 40.422 40.422zM896 704c0 70.692-57.306 128-128 128s-128-57.308-128-128c0-70.692 57.306-128 128-128s128 57.308 128 128zM938.667 704c0-94.257-76.412-170.667-170.667-170.667s-170.667 76.41-170.667 170.667c0 94.257 76.412 170.667 170.667 170.667s170.667-76.41 170.667-170.667zM725.559 706.858c-5.892 10.203-18.94 13.699-29.141 7.808-10.206-5.891-13.7-18.938-7.808-29.142l21.333-36.951c5.888-10.203 18.935-13.699 29.141-7.808l110.852 64c10.202 5.891 13.696 18.938 7.808 29.142-5.892 10.204-18.94 13.7-29.141 7.808l-92.378-53.333-10.667 18.476z" />
<glyph unicode="&#xe93d;" glyph-name="vehicle-defect" d="M876.8 494.080c-5.632-0.085-11.004-2.381-14.955-6.391s-6.165-9.417-6.165-15.049v-303.040c0-5.687-2.257-11.14-6.281-15.159-4.019-4.023-9.472-6.281-15.159-6.281h-642.24c-5.686 0-11.14 2.257-15.16 6.281-4.021 4.019-6.28 9.472-6.28 15.159v192h682.88v43.84h-682.88v220.16h366.080c2.799-0.043 5.581 0.472 8.179 1.515 2.603 1.042 4.966 2.592 6.963 4.557 1.993 1.966 3.58 4.308 4.659 6.892 1.084 2.583 1.638 5.356 1.638 8.157 0 2.816-0.555 5.603-1.634 8.205-1.075 2.601-2.654 4.965-4.646 6.956-1.988 1.991-4.352 3.57-6.955 4.648s-5.389 1.632-8.205 1.632h-366.080v90.56l8.32 5.44c19.163 11.137 39.432 20.252 60.48 27.2 103.659 31.341 211.772 45.396 320 41.6 2.816 0 5.602 0.555 8.205 1.632s4.966 2.657 6.955 4.648c1.993 1.991 3.571 4.354 4.646 6.956 1.079 2.601 1.634 5.389 1.634 8.205s-0.555 5.603-1.634 8.205c-1.075 2.601-2.654 4.965-4.646 6.956-1.988 1.991-4.352 3.57-6.955 4.648s-5.389 1.632-8.205 1.632c-113.442 4.041-226.769-10.774-335.36-43.84-23.578-8.241-46.213-18.968-67.52-32-5.537-3.434-10.878-7.174-16-11.2-1.507-1.024-2.901-2.204-4.16-3.52l-1.92-1.28-6.4-6.4v-160c-11.123 0.003-21.806-4.349-29.76-12.124s-12.549-18.356-12.8-29.476v-170.88c-0.128-5.67 0.879-11.307 2.96-16.58 2.082-5.278 5.196-10.082 9.161-14.135 3.965-4.058 8.7-7.275 13.927-9.476 5.227-2.197 10.841-3.328 16.512-3.328v-192c0-16.973 6.743-33.254 18.745-45.257s28.281-18.743 45.255-18.743h21.44v-41.6c-0.172-5.696 0.803-11.366 2.865-16.678 2.062-5.316 5.17-10.159 9.139-14.246s8.719-7.339 13.968-9.557c5.249-2.219 10.89-3.362 16.588-3.358h85.44c5.686 0.043 11.307 1.212 16.535 3.447 5.229 2.231 9.961 5.483 13.922 9.562 3.961 4.083 7.070 8.909 9.148 14.199 2.077 5.295 3.082 10.948 2.955 16.631v41.6h256v-41.6c0-11.315 4.471-22.174 12.446-30.208s18.799-12.587 30.114-12.672h85.44c5.615 0 11.174 1.109 16.363 3.268 5.184 2.159 9.89 5.325 13.845 9.31s7.083 8.717 9.203 13.918c2.121 5.201 3.191 10.769 3.149 16.384v41.6h23.68c16.973 0 33.254 6.741 45.257 18.743s18.743 28.284 18.743 45.257v303.040c0 5.687-2.257 11.14-6.281 15.159-4.019 4.023-9.472 6.281-15.159 6.281zM341.44 64h-85.44v41.6h85.44v-41.6zM768 64h-85.44v41.6h85.44v-41.6zM862.921 560.738c-28.122-18.696-61.15-28.642-94.921-28.578-22.507 0-44.791 4.453-65.566 13.105-20.779 8.651-39.637 21.329-55.492 37.303s-28.39 34.927-36.89 55.769c-8.495 20.841-12.783 43.158-12.612 65.664 0.188 33.769 10.381 66.725 29.286 94.706s45.679 49.734 76.937 62.511c31.262 12.777 65.604 16.006 98.697 9.278s63.45-23.109 87.241-47.077c23.787-23.968 39.94-54.447 46.421-87.589s2.995-67.461-10.014-98.624c-13.013-31.163-34.965-57.772-63.087-76.468zM839.113 810.428c-21.047 14.065-45.798 21.572-71.113 21.572-33.946 0-66.505-13.486-90.509-37.49s-37.491-56.562-37.491-90.51c0-25.316 7.505-50.063 21.572-71.113 14.063-21.050 34.057-37.456 57.446-47.144 23.386-9.688 49.122-12.223 73.954-7.284 24.828 4.939 47.637 17.13 65.536 35.031 17.903 17.901 30.093 40.709 35.034 65.538 4.937 24.829 2.402 50.566-7.287 73.955-9.685 23.389-26.091 43.38-47.142 57.445zM744 736c0-19.2 2.24-38.72 4.8-57.92 0-5.092 2.022-9.976 5.623-13.577s8.486-5.623 13.577-5.623c5.090 0 9.975 2.023 13.577 5.623s5.623 8.484 5.623 13.577c2.56 19.2 3.84 38.72 4.8 57.92v29.12c1.489 10.042-0.427 20.294-5.44 29.12-1.527 2.172-3.358 4.112-5.44 5.76-5.052 3.435-11.26 4.724-17.259 3.584s-11.302-4.617-14.741-9.664c-5.013-8.826-6.929-19.078-5.44-29.12l0.32-28.8zM768 636.8c-3.797 0-7.509-1.126-10.667-3.236s-5.619-5.108-7.070-8.617c-1.455-3.508-1.835-7.369-1.097-11.093 0.742-3.724 2.573-7.145 5.257-9.831s6.106-4.514 9.83-5.254c3.725-0.741 7.586-0.361 11.093 1.092s6.507 3.914 8.619 7.072c2.108 3.158 3.234 6.87 3.234 10.667 0 5.092-2.022 9.976-5.623 13.577s-8.482 5.623-13.577 5.623zM247.040 262.72c0.9-10.116 5.554-19.524 13.046-26.381s17.279-10.658 27.434-10.658c10.155 0 19.942 3.802 27.433 10.658s12.146 16.265 13.047 26.381c0.5 5.619-0.175 11.281-1.982 16.623s-4.707 10.253-8.514 14.413c-3.808 4.16-8.44 7.484-13.602 9.758s-10.741 3.447-16.381 3.447c-5.641 0-11.22-1.173-16.382-3.447s-9.794-5.598-13.602-9.758c-3.808-4.16-6.707-9.071-8.515-14.413s-2.482-11.004-1.982-16.623zM651.2 262.72c0-8.051 2.394-15.923 6.874-22.609 4.48-6.69 10.846-11.9 18.287-14.967 7.445-3.068 15.633-3.853 23.526-2.257s15.134 5.495 20.804 11.213c5.67 5.713 9.515 12.988 11.046 20.89 1.532 7.906 0.683 16.085-2.445 23.505-3.123 7.42-8.384 13.747-15.108 18.172-6.724 4.429-14.613 6.758-22.665 6.694-5.321 0-10.59-1.054-15.505-3.098-4.911-2.048-9.37-5.047-13.12-8.823-3.746-3.78-6.711-8.26-8.717-13.193-2.010-4.928-3.021-10.206-2.978-15.526z" />
<glyph unicode="&#xe93e;" glyph-name="vehicle-takout" d="M170.667 759.653c2.145 1.526 4.867 3.353 8.226 5.417 11.648 7.162 31.004 17.215 60.514 27.44 59.048 20.462 158.781 41.623 318.627 41.623 11.785 0 21.333 9.551 21.333 21.333s-9.549 21.333-21.333 21.333c-163.518 0-268.136-21.638-332.597-43.975-32.245-11.174-54.433-22.52-68.89-31.408-7.225-4.442-12.506-8.262-16.133-11.126-1.813-1.431-3.211-2.622-4.231-3.53-0.509-0.454-0.925-0.837-1.249-1.144l-0.42-0.403-0.16-0.157-0.068-0.067-0.031-0.031 15.079-15.090c-15.076 15.030-15.094 15.076-15.079 15.090l-6.254-6.273v-160.020c-23.564 0-42.667-19.103-42.667-42.667v-170.667c0-23.565 19.103-42.667 42.667-42.667v-192.111c0-35.349 28.654-64 64-64h21.333v-42.556c0-23.565 19.103-42.667 42.667-42.667h85.333c23.564 0 42.667 19.102 42.667 42.667v42.556h256v-42.556c0-23.565 19.102-42.667 42.667-42.667h85.333c23.565 0 42.667 19.102 42.667 42.667v42.556h23.578c35.349 0 64 28.651 64 64v303.155c0 11.785-9.549 21.333-21.333 21.333-11.78 0-21.333-9.549-21.333-21.333v-303.155c0-11.785-9.549-21.333-21.333-21.333h-23.578v0.111l-618.667-0.111c-11.782 0-21.333 9.549-21.333 21.333v193.233h682.667v42.667h-682.667v220.071h366.033c11.785 0 21.333 9.551 21.333 21.333s-9.549 21.333-21.333 21.333h-366.033v90.46zM682.667 64v42.556h85.333v-42.556h-85.333zM256 106.556h85.333v-42.556h-85.333v42.556zM287.439 223.437c-22.324 0-40.421 18.099-40.421 40.422s18.097 40.422 40.421 40.422c22.324 0 40.421-18.099 40.421-40.422s-18.097-40.422-40.421-40.422zM732.070 263.859c0 22.323-18.099 40.422-40.422 40.422s-40.418-18.099-40.418-40.422c0-22.323 18.095-40.422 40.418-40.422s40.422 18.099 40.422 40.422zM768 576c-70.694 0-128 57.308-128 128s57.306 128 128 128c70.694 0 128-57.308 128-128s-57.306-128-128-128zM768 533.333c94.255 0 170.667 76.41 170.667 170.667s-76.412 170.667-170.667 170.667c-94.255 0-170.667-76.41-170.667-170.667s76.412-170.667 170.667-170.667zM673.621 717.593c-0.708-0.48-1.382-1.003-2.022-1.568-3.84-3.393-5.999-7.994-5.999-12.793s2.159-9.4 5.999-12.793c0.708-0.624 1.459-1.198 2.253-1.719l56.055-49.17c3.938-2.747 8.896-4.092 13.901-3.77s9.694 2.29 13.137 5.515c3.443 3.224 5.397 7.471 5.47 11.903 0.077 4.433-1.732 8.729-5.065 12.043l-22.528 19.901h115.098c5.431 0 10.641 1.906 14.481 5.299s5.999 7.994 5.999 12.793c0 4.798-2.159 9.4-5.999 12.793s-9.050 5.299-14.481 5.299h-113.233l20.663 20.262c1.958 1.624 3.52 3.586 4.587 5.764s1.621 4.527 1.621 6.9c0 2.374-0.555 4.722-1.621 6.9s-2.628 4.14-4.587 5.764c-1.903 1.696-4.169 3.042-6.665 3.96s-5.171 1.391-7.876 1.391c-2.705 0-5.38-0.473-7.876-1.391s-4.762-2.264-6.665-3.96l-54.647-49.322z" />
<glyph unicode="&#xe93f;" glyph-name="vehicle" d="M512 874.667c341.333 0 384-90.353 384-90.353v-122.98c23.565 0 42.667-19.103 42.667-42.667v-128c0-23.565-19.102-42.667-42.667-42.667v-298.667c0-23.565-19.102-42.667-42.667-42.667h-42.667v-42.667c0-23.565-19.102-42.667-42.667-42.667h-85.333c-23.565 0-42.667 19.102-42.667 42.667v42.667h-256v-42.667c0-23.565-19.103-42.667-42.667-42.667h-85.333c-23.564 0-42.667 19.102-42.667 42.667v42.667h-42.667c-23.564 0-42.667 19.102-42.667 42.667v298.667c-23.564 0-42.667 19.102-42.667 42.667v128c0 23.564 19.103 42.667 42.667 42.667v122.98c0 0 42.667 90.353 384 90.353zM768 64v42.667h-85.333v-42.667h85.333zM810.667 149.333h42.667v234.667h-682.667v-234.667h640zM256 64h85.333v42.667h-85.333v-42.667zM853.333 426.667v234.667h-682.667v-234.667h682.667zM170.667 768.568v-64.568h682.667v64.569c-6.033 5.038-17.596 13.004-37.973 21.633-46.191 19.564-135.94 41.798-303.36 41.798s-257.168-22.234-303.36-41.798c-20.375-8.63-31.94-16.596-37.973-21.634zM341.333 277.333c0 23.565-19.103 42.667-42.667 42.667s-42.667-19.102-42.667-42.667c0-23.565 19.103-42.667 42.667-42.667s42.667 19.102 42.667 42.667zM725.333 234.667c-23.565 0-42.667 19.102-42.667 42.667s19.102 42.667 42.667 42.667c23.565 0 42.667-19.102 42.667-42.667s-19.102-42.667-42.667-42.667z" />
<glyph unicode="&#x1f310;" glyph-name="web" d="M512 944c-275.2 0-496-220.8-496-496s220.8-496 496-496 496 220.8 496 496-220.8 496-496 496zM899.2 640h-166.4c-19.2 89.6-48 163.2-86.4 217.6 112-35.2 201.6-115.2 252.8-217.6zM688 448c0-44.8-3.2-89.6-9.6-128h-332.8c-6.4 38.4-9.6 83.2-9.6 128s3.2 89.6 9.6 128h336c3.2-38.4 6.4-83.2 6.4-128zM512 880c54.4 0 121.6-89.6 156.8-240h-313.6c35.2 150.4 102.4 240 156.8 240zM377.6 857.6c-38.4-54.4-67.2-128-86.4-217.6h-166.4c51.2 102.4 140.8 182.4 252.8 217.6zM80 448c0 44.8 6.4 86.4 19.2 128h182.4c-6.4-41.6-9.6-83.2-9.6-128s3.2-86.4 9.6-128h-182.4c-12.8 41.6-19.2 83.2-19.2 128zM124.8 256h166.4c19.2-89.6 48-163.2 86.4-217.6-112 35.2-201.6 115.2-252.8 217.6zM512 16c-54.4 0-121.6 89.6-156.8 240h313.6c-35.2-150.4-102.4-240-156.8-240zM646.4 38.4c38.4 54.4 67.2 128 86.4 217.6h166.4c-51.2-102.4-140.8-182.4-252.8-217.6zM742.4 320c6.4 41.6 9.6 83.2 9.6 128s-3.2 86.4-9.6 128h182.4c12.8-41.6 19.2-83.2 19.2-128s-6.4-86.4-19.2-128h-182.4z" />
<glyph unicode="&#x1f325;" glyph-name="cloud" d="M476.8 188.8c-12.8 6.4-28.8 3.2-35.2-9.6l-57.6-102.4c-6.4-12.8-3.2-28.8 9.6-35.2 3.2-3.2 9.6-3.2 12.8-3.2 9.6 0 16 3.2 22.4 12.8l57.6 102.4c6.4 12.8 3.2 28.8-9.6 35.2zM307.2 633.6c41.6 0 76.8-32 83.2-73.6 6.4 6.4 16 9.6 25.6 16 3.2 12.8 6.4 25.6 9.6 38.4-22.4 41.6-67.2 70.4-115.2 70.4-73.6 0-134.4-60.8-134.4-134.4s57.6-134.4 131.2-134.4c0 0 0 0 0 0 3.2 19.2 6.4 35.2 12.8 51.2-3.2 0-9.6 0-12.8 0-44.8 0-83.2 38.4-83.2 83.2s38.4 83.2 83.2 83.2zM256 390.4c-6.4 9.6-16 12.8-25.6 9.6l-89.6-16 19.2 89.6c3.2 9.6-3.2 19.2-9.6 25.6l-76.8 51.2 76.8 51.2c6.4 6.4 9.6 16 9.6 25.6l-19.2 89.6 89.6-19.2c9.6 0 19.2 3.2 25.6 12.8l51.2 76.8 51.2-76.8c6.4-9.6 16-12.8 25.6-9.6l128 25.6c12.8 3.2 22.4 16 19.2 28.8s-16 22.4-28.8 19.2l-108.8-22.4-64 92.8c-9.6 12.8-32 12.8-41.6 0l-64-92.8-112 22.4c-6.4 3.2-16 0-22.4-6.4s-9.6-16-6.4-22.4l22.4-108.8-92.8-64c-9.6-6.4-12.8-12.8-12.8-22.4s3.2-16 12.8-22.4l92.8-64-22.4-112c0-9.6 0-16 6.4-22.4s12.8-9.6 22.4-6.4l112 25.6 64-92.8c6.4-6.4 12.8-12.8 22.4-12.8 6.4 0 9.6 0 12.8 3.2 12.8 6.4 16 22.4 6.4 35.2l-73.6 108.8zM784 188.8c-12.8 6.4-28.8 3.2-35.2-9.6l-57.6-102.4c-6.4-12.8-3.2-28.8 9.6-35.2 3.2-3.2 9.6-3.2 12.8-3.2 9.6 0 16 3.2 22.4 12.8l57.6 102.4c6.4 12.8 3.2 28.8-9.6 35.2zM921.6 540.8c-9.6 64-60.8 112-128 112-12.8 0-28.8-3.2-41.6-6.4-32 35.2-76.8 57.6-124.8 57.6-89.6 0-163.2-73.6-166.4-163.2-60.8-22.4-102.4-80-102.4-144 0-83.2 70.4-153.6 153.6-153.6h358.4c83.2 0 153.6 70.4 153.6 153.6 0 67.2-41.6 124.8-102.4 144zM870.4 294.4h-358.4c-57.6 0-102.4 44.8-102.4 102.4 0 48 35.2 92.8 83.2 99.2l22.4 3.2-3.2 32c0 3.2 0 3.2 0 6.4 0 64 51.2 115.2 115.2 115.2 38.4 0 73.6-19.2 96-51.2l12.8-19.2 19.2 12.8c51.2 28.8 112-12.8 112-64v-25.6l19.2-3.2c48-9.6 83.2-51.2 83.2-99.2 3.2-64-41.6-108.8-99.2-108.8zM937.6 188.8c-12.8 6.4-28.8 3.2-35.2-9.6l-57.6-102.4c-6.4-12.8-3.2-28.8 9.6-35.2 3.2-3.2 9.6-3.2 12.8-3.2 9.6 0 16 3.2 22.4 12.8l57.6 102.4c6.4 12.8 3.2 28.8-9.6 35.2zM630.4 188.8c-12.8 6.4-28.8 3.2-35.2-9.6l-57.6-102.4c-6.4-12.8-3.2-28.8 9.6-35.2 3.2-3.2 9.6-3.2 12.8-3.2 9.6 0 16 3.2 22.4 12.8l57.6 102.4c6.4 12.8 3.2 28.8-9.6 35.2z" />
<glyph unicode="&#x1f3e0;" glyph-name="home" d="M963.2 496l-416 336c-22.4 16-51.2 16-70.4 0l-416-336c-6.4-6.4-6.4-12.8-3.2-19.2l19.2-22.4c6.4-6.4 16-6.4 22.4-3.2l70.4 60.8v-432c0-16 12.8-28.8 28.8-28.8h227.2c16 0 28.8 12.8 28.8 28.8v227.2h115.2v-227.2c0-16 12.8-28.8 28.8-28.8h227.2c16 0 28.8 12.8 28.8 28.8v432l73.6-60.8c6.4-6.4 16-3.2 19.2 3.2l19.2 22.4c3.2 6.4 0 12.8-3.2 19.2 0 0 0 0 0 0zM796.8 105.6v0h-169.6v227.2c0 16-12.8 28.8-28.8 28.8h-169.6c-16 0-28.8-12.8-28.8-28.8 0 0 0 0 0 0v-227.2h-172.8v451.2l284.8 233.6 284.8-233.6v-451.2z" />
<glyph unicode="&#x1f4bc;" glyph-name="briefcase" d="M928 704h-224v144c0 25.6-22.4 48-48 48h-288c-25.6 0-48-22.4-48-48v-144h-224c-54.4 0-96-41.6-96-96v-512c0-54.4 41.6-96 96-96h832c54.4 0 96 41.6 96 96v512c0 54.4-41.6 96-96 96zM384 832h256v-128h-256v128zM960 96c0-19.2-12.8-32-32-32h-832c-19.2 0-32 12.8-32 32v288h320v-80c0-25.6 22.4-48 48-48h160c25.6 0 48 22.4 48 48v80h320v-288zM448 320v64h128v-64h-128zM960 448h-896v160c0 19.2 12.8 32 32 32h832c19.2 0 32-12.8 32-32v-160z" />
<glyph unicode="&#x1f4c6;" glyph-name="calendar-time" d="M864 832h-96v102.4c0 16-9.6 25.6-25.6 25.6h-16c-12.8 0-22.4-9.6-22.4-25.6v-102.4h-384v102.4c0 16-9.6 25.6-25.6 25.6h-12.8c-16 0-25.6-9.6-25.6-25.6v-102.4h-96c-54.4 0-96-41.6-96-96v-704c0-54.4 41.6-96 96-96h704c54.4 0 96 41.6 96 96v704c0 54.4-41.6 96-96 96zM160 768h704c19.2 0 32-12.8 32-32v-96h-768v96c0 19.2 12.8 32 32 32zM864 0h-704c-19.2 0-32 12.8-32 32v544h768v-544c0-19.2-12.8-32-32-32zM512 518.4c-128 0-230.4-102.4-230.4-230.4s102.4-230.4 230.4-230.4 230.4 102.4 230.4 230.4c0 128-102.4 230.4-230.4 230.4zM512 108.8c-99.2 0-179.2 80-179.2 179.2s80 179.2 179.2 179.2 179.2-80 179.2-179.2c0-99.2-80-179.2-179.2-179.2zM598.4 313.6h-60.8v86.4c0 9.6-6.4 16-16 16h-19.2c-9.6 0-16-6.4-16-16v-121.6c0-9.6 6.4-16 16-16h96c9.6 0 16 6.4 16 16v19.2c0 9.6-6.4 16-16 16z" />
<glyph unicode="&#x1f50d;" glyph-name="search" d="M1017.6-3.2l-259.2 259.2c-3.2 3.2-9.6 6.4-16 6.4h-19.2c67.2 73.6 112 172.8 112 281.6 0 230.4-185.6 416-416 416s-419.2-185.6-419.2-416 185.6-416 416-416c108.8 0 208 41.6 281.6 112v-19.2c0-6.4 3.2-12.8 6.4-16l259.2-259.2c9.6-9.6 25.6-9.6 35.2 0l19.2 19.2c9.6 6.4 9.6 22.4 0 32zM416 192c-195.2 0-352 156.8-352 352s156.8 352 352 352 352-156.8 352-352-156.8-352-352-352z" />
<glyph unicode="&#x1f50e;" glyph-name="find-doc" d="M1017.6-3.2l-259.2 259.2c-3.2 3.2-9.6 6.4-16 6.4h-19.2c67.2 73.6 112 172.8 112 281.6 0 230.4-185.6 416-416 416s-419.2-185.6-419.2-416 185.6-416 416-416c108.8 0 208 41.6 281.6 112v-19.2c0-6.4 3.2-12.8 6.4-16l259.2-259.2c9.6-9.6 25.6-9.6 35.2 0l19.2 19.2c9.6 6.4 9.6 22.4 0 32zM416 192c-195.2 0-352 156.8-352 352s156.8 352 352 352 352-156.8 352-352-156.8-352-352-352zM608 678.4v-16c0-12.8-9.6-22.4-25.6-22.4h-332.8c-12.8 0-25.6 9.6-25.6 22.4v16c0 12.8 9.6 25.6 25.6 25.6h336c12.8 0 22.4-9.6 22.4-25.6zM608 550.4v-16c0-12.8-9.6-25.6-25.6-25.6h-332.8c-12.8 3.2-25.6 9.6-25.6 28.8v16c0 9.6 9.6 22.4 25.6 22.4h336c12.8 0 22.4-6.4 22.4-25.6zM608 422.4v-16c0-12.8-9.6-25.6-25.6-25.6h-332.8c-12.8 3.2-25.6 9.6-25.6 28.8v16c0 9.6 9.6 22.4 25.6 22.4h336c12.8 0 22.4-6.4 22.4-25.6z" />
<glyph unicode="&#x1f553;" glyph-name="clock" d="M512 944c-275.2 0-496-220.8-496-496s220.8-496 496-496 496 220.8 496 496-220.8 496-496 496zM944 448c0-236.8-192-432-432-432-236.8 0-432 192-432 432 0 236.8 192 432 432 432 236.8 0 432-192 432-432zM646.4 272l-163.2 118.4c-6.4 3.2-9.6 12.8-9.6 19.2v320c0 12.8 9.6 25.6 25.6 25.6h28.8c12.8 0 25.6-9.6 25.6-25.6v-291.2l140.8-102.4c9.6-6.4 12.8-22.4 6.4-32l-16-22.4c-12.8-16-28.8-19.2-38.4-9.6z" />
<glyph unicode="&#x1f698;" glyph-name="car" d="M243.2 464c-51.2 0-89.6-32-89.6-80 0-44.8 38.4-80 89.6-80h19.2c80 0 89.6 41.6 89.6 64 0 48-60.8 96-108.8 96zM262.4 352c-6.4 0-12.8 0-19.2 0-25.6 0-41.6 12.8-41.6 32s16 32 41.6 32 60.8-28.8 60.8-48c0-12.8-22.4-16-41.6-16zM780.8 464c-48 0-108.8-48-108.8-96 0-22.4 12.8-64 89.6-64h19.2c51.2 0 89.6 32 89.6 80s-35.2 80-89.6 80zM780.8 352c-6.4 0-12.8 0-19.2 0-22.4 0-41.6 3.2-41.6 16 0 19.2 38.4 48 64 48s41.6-12.8 41.6-32-19.2-32-44.8-32zM1011.2 633.6c-12.8 25.6-38.4 38.4-67.2 38.4h-99.2l-16 48c-22.4 67.2-83.2 112-153.6 112h-326.4c-70.4 0-131.2-44.8-153.6-112l-16-48h-99.2c-28.8 0-54.4-12.8-67.2-38.4s-16-54.4-3.2-76.8l12.8-22.4c6.4-16 19.2-28.8 35.2-38.4-16-22.4-25.6-51.2-25.6-80v-256c0-54.4 41.6-96 96-96h32c54.4 0 96 41.6 96 96v32h512v-32c0-54.4 41.6-96 96-96h32c54.4 0 96 41.6 96 96v256c0 28.8-9.6 57.6-22.4 80 12.8 9.6 25.6 22.4 35.2 38.4l12.8 22.4c9.6 25.6 9.6 54.4-6.4 76.8zM256 700.8c12.8 41.6 51.2 67.2 92.8 67.2h329.6c41.6 0 76.8-25.6 92.8-67.2l41.6-124.8h-598.4c0 0 41.6 124.8 41.6 124.8zM76.8 563.2l-12.8 22.4c-3.2 6.4 0 12.8 0 16 3.2 3.2 9.6 6.4 16 6.4h80l-12.8-38.4c-16-6.4-32-12.8-44.8-22.4-12.8 0-19.2 6.4-25.6 16zM192 160c0-19.2-12.8-32-32-32h-32c-19.2 0-32 12.8-32 32v32h96v-32zM928 160c0-19.2-12.8-32-32-32h-32c-19.2 0-32 12.8-32 32v32h96v-32zM928 320v-64h-832v160c0 54.4 41.6 96 96 96h640c54.4 0 96-41.6 96-96v-96zM956.8 585.6l-12.8-22.4c-3.2-9.6-12.8-12.8-22.4-16-12.8 9.6-28.8 16-44.8 22.4l-12.8 38.4h80c6.4 0 12.8-3.2 12.8-6.4 3.2-3.2 6.4-9.6 0-16z" />
<glyph unicode="&#x1f69b;" glyph-name="truck-info" d="M1011.2 267.2h-38.4v172.8c0 25.6-9.6 54.4-28.8 73.6l-134.4 134.4c-19.2 19.2-44.8 28.8-73.6 28.8h-70.4v80c0 41.6-35.2 73.6-80 73.6h-505.6c-44.8 0-80-32-80-73.6v-464c0-41.6 35.2-73.6 80-73.6h25.6c-3.2-9.6-3.2-16-3.2-25.6 0-70.4 57.6-128 128-128s128 57.6 128 128c0 9.6 0 16-3.2 25.6h313.6c-3.2-9.6-3.2-16-3.2-25.6 0-70.4 57.6-128 128-128s128 57.6 128 128c0 9.6 0 16-3.2 25.6h92.8c6.4 0 12.8 6.4 12.8 12.8v25.6c0 3.2-6.4 9.6-12.8 9.6zM736 625.6c12.8 0 25.6-6.4 35.2-16l134.4-134.4c0 0 3.2-3.2 3.2-3.2h-243.2v153.6h70.4zM230.4 113.6c-41.6 0-76.8 35.2-76.8 76.8s35.2 76.8 76.8 76.8 76.8-35.2 76.8-76.8-35.2-76.8-76.8-76.8zM332.8 267.2c-22.4 32-60.8 51.2-102.4 51.2s-76.8-19.2-102.4-51.2h-48c-16 0-28.8 9.6-28.8 22.4v467.2c0 12.8 12.8 22.4 28.8 22.4h508.8c16 0 28.8-9.6 28.8-22.4v-489.6h-284.8zM793.6 113.6c-41.6 0-76.8 35.2-76.8 76.8s35.2 76.8 76.8 76.8c41.6 0 76.8-35.2 76.8-76.8s-35.2-76.8-76.8-76.8zM793.6 318.4c-41.6 0-80-19.2-102.4-51.2h-25.6v153.6h256v-153.6h-25.6c-25.6 32-60.8 51.2-102.4 51.2zM323.2 708.8c-102.4 0-185.6-83.2-185.6-185.6s83.2-185.6 185.6-185.6 185.6 83.2 185.6 185.6c0 102.4-83.2 185.6-185.6 185.6zM323.2 628.8c16 0 32-12.8 32-32s-12.8-32-32-32-32 12.8-32 32 16 32 32 32zM364.8 436.8c0-6.4-3.2-9.6-9.6-9.6h-64c-6.4 0-9.6 3.2-9.6 9.6v19.2c0 6.4 3.2 9.6 9.6 9.6h9.6v48h-9.6c-6.4 0-9.6 3.2-9.6 9.6v19.2c0 6.4 3.2 9.6 9.6 9.6h48c6.4 0 9.6-3.2 9.6-9.6v-76.8h9.6c6.4 0 9.6-3.2 9.6-9.6v-19.2z" />
</font>
</defs>
</svg>
