<?xml version="1.0" encoding="UTF-8"?>
<svg width="1296px" height="455px" viewBox="0 0 1296 455" version="1.1" xmlns="http://www.w3.org/2000/svg" xmlns:xlink="http://www.w3.org/1999/xlink">
    <!-- Generator: Sketch 60 (88103) - https://sketch.com -->
    <title>Group 4</title>
    <desc>Created with Sketch.</desc>
    <g id="Page-1" stroke="none" stroke-width="1" fill="none" fill-rule="evenodd">
        <g id="Group-4" transform="translate(-3.000000, 0.000000)">
            <g id="Score-History" transform="translate(0.000000, 14.000000)">
                <g id="Vertical-lines" transform="translate(66.102273, 15.878887)" stroke="#979797" stroke-linecap="square">
                    <line x1="0.670454545" y1="0" x2="0.670454545" y2="339.307692" id="Line"></line>
                    <line x1="102.579545" y1="1.36620121e-14" x2="102.579545" y2="339.307692" id="Line"></line>
                    <line x1="212.534091" y1="1.36620121e-14" x2="212.534091" y2="339.307692" id="Line"></line>
                    <line x1="326.511364" y1="1.36620121e-14" x2="326.511364" y2="339.307692" id="Line"></line>
                    <line x1="437.806818" y1="1.36620121e-14" x2="437.806818" y2="339.307692" id="Line"></line>
                    <line x1="547.761364" y1="1.36620121e-14" x2="547.761364" y2="339.307692" id="Line"></line>
                    <line x1="660.397727" y1="1.36620121e-14" x2="660.397727" y2="339.307692" id="Line"></line>
                    <line x1="770.352273" y1="1.36620121e-14" x2="770.352273" y2="339.307692" id="Line"></line>
                    <line x1="882.988636" y1="1.36620121e-14" x2="882.988636" y2="339.307692" id="Line"></line>
                    <line x1="992.943182" y1="1.36620121e-14" x2="992.943182" y2="339.307692" id="Line"></line>
                    <line x1="1105.57955" y1="1.36620121e-14" x2="1105.57955" y2="339.307692" id="Line"></line>
                    <line x1="1204.14773" y1="1.36620121e-14" x2="1204.14773" y2="339.307692" id="Line"></line>
                </g>
                <g id="Horizontal-lines" transform="translate(45.000000, 15.000000)" stroke="#979797" stroke-linecap="square">
                    <line x1="612.488636" y1="612.474483" x2="612.488636" y2="-611.161881" id="Line" transform="translate(612.488636, 0.656301) scale(1, -1) rotate(90.000000) translate(-612.488636, -0.656301) "></line>
                    <line x1="612.488636" y1="645.28954" x2="612.488636" y2="-578.346824" id="Line" transform="translate(612.488636, 33.471358) scale(1, -1) rotate(90.000000) translate(-612.488636, -33.471358) "></line>
                    <line x1="612.488636" y1="678.104598" x2="612.488636" y2="-545.531766" id="Line" transform="translate(612.488636, 66.286416) scale(1, -1) rotate(90.000000) translate(-612.488636, -66.286416) "></line>
                    <line x1="612.488636" y1="710.919655" x2="612.488636" y2="-512.716709" id="Line" transform="translate(612.488636, 99.101473) scale(1, -1) rotate(90.000000) translate(-612.488636, -99.101473) "></line>
                    <line x1="612.488636" y1="743.734712" x2="612.488636" y2="-479.901652" id="Line" transform="translate(612.488636, 131.916530) scale(1, -1) rotate(90.000000) translate(-612.488636, -131.916530) "></line>
                    <line x1="612.488636" y1="776.549769" x2="612.488636" y2="-447.086594" id="Line" transform="translate(612.488636, 164.731588) scale(1, -1) rotate(90.000000) translate(-612.488636, -164.731588) "></line>
                    <line x1="612.488636" y1="809.364827" x2="612.488636" y2="-414.271537" id="Line" transform="translate(612.488636, 197.546645) scale(1, -1) rotate(90.000000) translate(-612.488636, -197.546645) "></line>
                    <line x1="612.488636" y1="842.179884" x2="612.488636" y2="-381.45648" id="Line" transform="translate(612.488636, 230.361702) scale(1, -1) rotate(90.000000) translate(-612.488636, -230.361702) "></line>
                    <line x1="612.488636" y1="874.994941" x2="612.488636" y2="-348.641423" id="Line" transform="translate(612.488636, 263.176759) scale(1, -1) rotate(90.000000) translate(-612.488636, -263.176759) "></line>
                    <line x1="612.488636" y1="907.809999" x2="612.488636" y2="-315.826365" id="Line" transform="translate(612.488636, 295.991817) scale(1, -1) rotate(90.000000) translate(-612.488636, -295.991817) "></line>
                    <line x1="612.488636" y1="940.625056" x2="612.488636" y2="-283.011308" id="Line" transform="translate(612.488636, 328.806874) scale(1, -1) rotate(90.000000) translate(-612.488636, -328.806874) "></line>
                </g>
                <g id="Group" transform="translate(0.000000, 0.003273)" fill="#676767" font-family="Lato-Regular, Lato" font-size="24" font-weight="normal">
                    <text id="10">
                        <tspan x="17.7509091" y="318.211129">10</tspan>
                    </text>
                    <text id="0">
                        <tspan x="31.6709091" y="350.369885">0</tspan>
                    </text>
                    <text id="20">
                        <tspan x="17.7509091" y="284.739771">20</tspan>
                    </text>
                    <text id="30">
                        <tspan x="17.7509091" y="251.924714">30</tspan>
                    </text>
                    <text id="40">
                        <tspan x="17.7509091" y="219.109656">40</tspan>
                    </text>
                    <text id="50">
                        <tspan x="17.7509091" y="186.294599">50</tspan>
                    </text>
                    <text id="60">
                        <tspan x="17.7509091" y="153.479542">60</tspan>
                    </text>
                    <text id="70">
                        <tspan x="17.7509091" y="120.664484">70</tspan>
                    </text>
                    <text id="80">
                        <tspan x="17.7509091" y="87.8494272">80</tspan>
                    </text>
                    <text id="90">
                        <tspan x="17.7509091" y="55.0343699">90</tspan>
                    </text>
                    <text id="100">
                        <tspan x="3.83090909" y="24.2193126">100</tspan>
                    </text>
                </g>
                <g id="Group-2" transform="translate(33.000000, 347.000000)" fill="#676767" font-family="Lato-Regular, Lato" font-size="24" font-weight="normal">
                    <text id="Oct">
                        <tspan x="6.27890909" y="24.2813299">Oct</tspan>
                    </text>
                    <text id="Nov">
                        <tspan x="106.087636" y="24.2813299">Nov</tspan>
                    </text>
                    <text id="Dec">
                        <tspan x="217.303091" y="24.2813299">Dec</tspan>
                    </text>
                    <text id="Jan">
                        <tspan x="337.627455" y="24.2813299">Jan</tspan>
                    </text>
                    <text id="Feb">
                        <tspan x="446.514909" y="24.2813299">Feb</tspan>
                    </text>
                    <text id="Mar">
                        <tspan x="549.102727" y="24.2813299">Mar</tspan>
                    </text>
                    <text id="Apr">
                        <tspan x="667.419091" y="24.2813299">Apr</tspan>
                    </text>
                    <text id="May">
                        <tspan x="772.100364" y="24.2813299">May</tspan>
                    </text>
                    <text id="Jun">
                        <tspan x="893.269636" y="24.2813299">Jun</tspan>
                    </text>
                    <text id="Jul">
                        <tspan x="1006.37873" y="24.2813299">Jul</tspan>
                    </text>
                    <text id="Aug">
                        <tspan x="1111.27655" y="24.2813299">Aug</tspan>
                    </text>
                    <text id="Sep">
                        <tspan x="1206.50145" y="24.2813299">Sep</tspan>
                    </text>
                </g>
                <circle id="Oval" fill="#4000F7" cx="168.5" cy="45.5" r="7.5"></circle>
                <circle id="Oval" fill="#4000F7" cx="65.5" cy="64.5" r="7.5"></circle>
                <circle id="Oval" fill="#FF7E70" cx="66.5" cy="182.5" r="7.5"></circle>
                <circle id="Oval" fill="#FF7E70" cx="168.5" cy="290.5" r="7.5"></circle>
                <circle id="Oval" fill="#FF7E70" cx="278.5" cy="244.5" r="7.5"></circle>
                <circle id="Oval" fill="#FF7E70" cx="392.5" cy="316.5" r="7.5"></circle>
                <circle id="Oval" fill="#FF7E70" cx="503.5" cy="315.5" r="7.5"></circle>
                <circle id="Oval" fill="#FF7E70" cx="615.5" cy="287.5" r="7.5"></circle>
                <circle id="Oval" fill="#FF7E70" cx="727.5" cy="277.5" r="7.5"></circle>
                <circle id="Oval" fill="#FF7E70" cx="834.5" cy="250.5" r="7.5"></circle>
                <circle id="Oval" fill="#FF7E70" cx="949.5" cy="167.5" r="7.5"></circle>
                <circle id="Oval" fill="#FF7E70" cx="1060.5" cy="201.5" r="7.5"></circle>
                <circle id="Oval" fill="#FF7E70" cx="1171.5" cy="217.5" r="7.5"></circle>
                <circle id="Oval" fill="#FF7E70" cx="1267.5" cy="190.5" r="7.5"></circle>
                <circle id="Oval" fill="#4DE9A0" cx="1268.5" cy="234.5" r="7.5"></circle>
                <circle id="Oval" fill="#4DE9A0" cx="1171.5" cy="154.5" r="7.5"></circle>
                <circle id="Oval" fill="#4DE9A0" cx="1058.5" cy="208.5" r="7.5"></circle>
                <circle id="Oval" fill="#4DE9A0" cx="950.5" cy="182.5" r="7.5"></circle>
                <circle id="Oval" fill="#4DE9A0" cx="836.5" cy="99.5" r="7.5"></circle>
                <circle id="Oval" fill="#4DE9A0" cx="726.5" cy="177.5" r="7.5"></circle>
                <circle id="Oval" fill="#4DE9A0" cx="612.5" cy="154.5" r="7.5"></circle>
                <circle id="Oval" fill="#4DE9A0" cx="503.5" cy="258.5" r="7.5"></circle>
                <circle id="Oval" fill="#4DE9A0" cx="392.5" cy="73.5" r="7.5"></circle>
                <circle id="Oval" fill="#4DE9A0" cx="278.5" cy="150.5" r="7.5"></circle>
                <circle id="Oval" fill="#4DE9A0" cx="168.5" cy="101.5" r="7.5"></circle>
                <circle id="Oval" fill="#4DE9A0" cx="66.5" cy="206.5" r="7.5"></circle>
                <circle id="Oval" fill="#4000F7" cx="279.5" cy="125.663666" r="7.5"></circle>
                <circle id="Oval" fill="#4000F7" cx="390.5" cy="142.071195" r="7.5"></circle>
                <circle id="Oval" fill="#4000F7" cx="504.5" cy="189.981178" r="7.5"></circle>
                <circle id="Oval" fill="#4000F7" cx="611.5" cy="126.976268" r="7.5"></circle>
                <circle id="Oval" fill="#4000F7" cx="727.5" cy="35.5" r="7.5"></circle>
                <circle id="Oval" fill="#4000F7" cx="836.5" cy="142.071195" r="7.5"></circle>
                <circle id="Oval" fill="#4000F7" cx="949.5" cy="343.5" r="7.5"></circle>
                <circle id="Oval" fill="#4000F7" cx="1060.5" cy="128.945172" r="7.5"></circle>
                <circle id="Oval" fill="#4000F7" cx="1172.5" cy="224.765139" r="7.5"></circle>
                <circle id="Oval" fill="#4000F7" cx="1270.5" cy="92.1923077" r="7.5"></circle>
                <g id="Group-3" transform="translate(246.000000, 399.000000)">
                    <g id="Group-5">
                        <rect id="Rectangle" stroke="#4000F7" stroke-width="3" fill="#4000F7" x="1.5" y="6.5" width="99" height="19.5626598"></rect>
                        <text id="Overall-score" font-family="Lato-Regular, Lato" font-size="24" font-weight="normal" fill="#676767">
                            <tspan x="112.008" y="24">Overall score  </tspan>
                        </text>
                    </g>
                    <g id="Group-6" transform="translate(608.000000, 0.000000)">
                        <text id="Efficiency-score" font-family="Lato-Regular, Lato" font-size="24" font-weight="normal" fill="#676767">
                            <tspan x="113.672" y="24">Efficiency score  </tspan>
                        </text>
                        <rect id="Rectangle" stroke="#FF7E70" stroke-width="3" fill="#FF7E70" x="1.5" y="6.5" width="99" height="19.5626598"></rect>
                    </g>
                    <g id="Group-7" transform="translate(297.000000, 0.000000)">
                        <text id="Safety-score" font-family="Lato-Regular, Lato" font-size="24" font-weight="normal" fill="#676767">
                            <tspan x="111.36" y="24">Safety score  </tspan>
                        </text>
                        <rect id="Rectangle" stroke="#4DE9A0" stroke-width="3" fill="#4DE9A0" x="1.5" y="6.5" width="99" height="19.5626598"></rect>
                    </g>
                </g>
            </g>
            <polyline id="Line-4" stroke="#4000F7" stroke-width="3" stroke-linecap="square" points="69 77.8418788 168.477632 57.9034232 279.219243 140.273523 394.121297 157.389271 504.891307 204.603427 613.077014 141.417864 726.878609 47.5280665 837.641519 156.482774 950.541449 361.194125 1059.73326 140.951774 1172.68182 235.45545 1268.47387 109.127895"></polyline>
            <polyline id="Line-5" stroke="#4DE9A0" stroke-width="3" stroke-linecap="square" points="68 220.683243 167.52729 112.86462 278.710616 166.687685 391.868088 85.4702746 503.093285 274.584945 613.524482 167.483354 725.78095 193.23901 836.573479 113.119132 949.698385 194.332315 1058.98976 221.146608 1171.33307 167.410636 1268.65601 247.77759"></polyline>
            <polyline id="Line-6" stroke="#FF7E70" stroke-width="3" stroke-linecap="square" points="68 199.653973 168.756604 306.052294 278.55423 257.808813 393.069156 330.88462 503.638226 330.494326 613.602743 303.508308 726.778408 293.394597 836.373001 265.299634 949.377975 184.360812 1059.04107 219.621633 1171.91189 231.898367 1268.7167 207.187934"></polyline>
            <rect id="Rectangle" stroke="#F9FAFC" x="3.5" y="0.5" width="1295" height="454"></rect>
        </g>
    </g>
</svg>