<svg xmlns="http://www.w3.org/2000/svg" viewBox="0 0 20 32" xmlns:v="https://vecta.io/nano"><path d="M7 11.1l-1.2 1.7C5.1 12 4.7 11 4.7 10v-.6l2 .6c0 .4.1.8.3 1.1zm1.7-.4a.68.68 0 0 0 .7-.7c0-.4-.4-.7-.7-.7a.68.68 0 0 0-.7.7.68.68 0 0 0 .7.7zm3.5-2.5c-.6-1.2-1.6-1.9-2.9-2.1v2.1c.4.1.7.4.9.7l2-.7zM8 8.1v-2c-1.2.2-2.3.9-2.9 2.1l2 .6c.2-.3.5-.6.9-.7zm.1 3.8l-1.2 1.7c.5.3 1.2.4 1.8.4s1.2-.1 1.8-.4l-1.2-1.7c-.4.1-.8.1-1.2 0zM20 10c0 5.5-7 22-10 22C7.3 32 0 15.5 0 10S4.5 0 10 0s10 4.5 10 10zm-5.5 2.4c0 .1.1.3.3.3h1.3c.2 0 .3-.2.3-.4 0-.1-.1-.3-.3-.3h-1.3c-.3 0-.4.2-.3.4zm1.6.9h-2.7c-.2 0-.3.2-.3.4 0 .1.1.3.3.3h2.7c.2 0 .3-.2.3-.4l-.3-.3zM14 10a5.34 5.34 0 0 0-5.3-5.3C5.7 4.6 3.3 7 3.3 10a5.34 5.34 0 0 0 5.3 5.3c3 0 5.4-2.4 5.4-5.3zm2.4 5c0-.2-.1-.3-.3-.3h-4c-.2 0-.3.1-.3.3s.1.3.3.3h4c.2 0 .3-.1.3-.3zm-3.7-5.6l-2 .6c0 .4-.1.8-.3 1.1l1.2 1.7c.7-.7 1.1-1.7 1.2-2.8-.1-.2-.1-.4-.1-.6z" fill="#e94335"/></svg>