<svg viewBox="0 0 448 512" xmlns="http://www.w3.org/2000/svg"><path fill="#2E9900" d="M400 32H48C21.49 32 0 53.49 0 80v352c0 26.51 21.49 48 48 48h352c26.51 0 48-21.49 48-48V80c0-26.51-21.49-48-48-48Zm0 32c8.82 0 16 7.17 16 16v352c0 8.82-7.18 16-16 16H48c-8.83 0-16-7.18-16-16V80c0-8.83 7.17-16 16-16h352m-34.31 98.293l-8.46-8.52c-4.67-4.71-12.27-4.74-16.97-.07L176.819 315.83l-68.976-69.54c-4.67-4.71-12.265-4.74-16.97-.07l-8.52 8.45c-4.71 4.66-4.74 12.26-.07 16.97l85.87 86.572c4.66 4.7 12.26 4.73 16.97.06l180.48-179.032c4.7-4.67 4.73-12.27.06-16.97Z"/></svg>