<svg id="Layer_1" data-name="Layer 1" xmlns="http://www.w3.org/2000/svg" viewBox="0 0 15 15.02"><defs><style>.cls-1{fill:#fff;}</style></defs><title>close</title><path class="cls-1" d="M0.31,15a0.27,0.27,0,0,1-.19-0.46L6.31,8.35a0.27,0.27,0,0,1,.38.38L0.49,14.94A0.27,0.27,0,0,1,.31,15Z" transform="translate(0 0)"/><path class="cls-1" d="M7.88,7.53l7-7L15,0.43A0.27,0.27,0,1,0,14.51.12l-7,7-7-7L0.42,0.05A0.27,0.27,0,0,0,.12.5L7.27,7.68a0.27,0.27,0,0,0,.08.08l7.16,7.18a0.26,0.26,0,0,0,.37,0,0.27,0.27,0,0,0,0-.38Z" transform="translate(0 0)"/></svg>