<svg xmlns="http://www.w3.org/2000/svg" xmlns:xlink="http://www.w3.org/1999/xlink" width="40" height="40" viewBox="0 0 40 40">
  <defs>
    <path id="van@3x-a" d="M39.305,17.165625 L31.199375,7.439375 L31.199375,7.43937501 C30.4393375,6.52733751 29.3134625,6.00000001 28.12625,6.00000001 L2.00000001,6.00000001 C0.895625006,6.00000001 6.10236839e-09,6.89562501 6.10236839e-09,8.00000001 L6.10236839e-09,26 C6.10236839e-09,27.104375 0.895625006,28 2.00000001,28 L4.00000001,28 C4.00000001,31.308125 6.69125001,34 10,34 C13.30875,34 16,31.308125 16,28 L24,28 C24,31.308125 26.69125,34 30,34 C33.30875,34 36,31.308125 36,28 L38,28 C39.104375,28 40,27.104375 40,26 L40,19.08625 L40,19.0864533 C40,18.3846908 39.7541363,17.7051033 39.3051313,17.1657783 L39.305,17.165625 Z M23.5,9 L28.12625,9 C28.42375,9 28.70375,9.13125 28.894375,9.36 L34.428125,16 L23.5,16 L23.5,9 Z M13.5,9 L20.5,9 L20.5,16 L13.5,16 L13.5,9 Z M3,9 L10.5,9 L10.5,16 L3,16 L3,9 Z M10,31 C8.343125,31 7,29.656875 7,28 C7,26.343125 8.343125,25 10,25 C11.656875,25 13,26.343125 13,28 C13,29.656875 11.656875,31 10,31 Z M30,31 C28.343125,31 27,29.656875 27,28 C27,26.343125 28.343125,25 30,25 C31.656875,25 33,26.343125 33,28 C33,29.656875 31.656875,31 30,31 Z M37,25 L35.165,25 C34.124375,23.215625 32.210625,22 30,22 C27.789375,22 25.875625,23.215625 24.835,25 L15.165,25 C14.124375,23.215625 12.210625,22 10,22 C7.789375,22 5.875625,23.215625 4.835,25 L3,25 L3,19 L36.928125,19 L37,19.08625 L37,25 Z"/>
  </defs>
  <g fill="none" fill-rule="evenodd">
    <mask id="van@3x-b" fill="#fff">
      <use xlink:href="#van@3x-a"/>
    </mask>
    <use fill="#000" fill-rule="nonzero" xlink:href="#van@3x-a"/>
    <g fill="#0F0" mask="url(#van@3x-b)">
      <rect width="40" height="40"/>
    </g>
  </g>
</svg>
