<svg xmlns="http://www.w3.org/2000/svg" viewBox="0 0 20 32" xmlns:v="https://vecta.io/nano"><path d="M9.5 10.2V7.8a.47.47 0 0 1 .5-.5.47.47 0 0 1 .5.5v2.3a.47.47 0 0 1-.5.5c-.3.1-.5-.2-.5-.4zm.5 1.1a.68.68 0 0 0-.7.7.68.68 0 0 0 .7.7.68.68 0 0 0 .7-.7.68.68 0 0 0-.7-.7zM20 10c0 5.5-7 22-10 22C7.3 32 0 15.5 0 10S4.5 0 10 0s10 4.5 10 10zM4.3 10c0-1.1.3-2.1.9-3.1.1-.2.1-.5-.2-.7-.2-.1-.5 0-.6.2-1.4 2.2-1.4 5 0 7.2.1.2.5.3.7.1.2-.1.3-.5.2-.7-.7-.8-1-1.9-1-3zm10.4 0c0-2.6-2.1-4.7-4.7-4.7S5.3 7.4 5.3 10s2.1 4.7 4.7 4.7 4.7-2.1 4.7-4.7zm2 0c0-1.3-.4-2.5-1.1-3.6-.2-.2-.5-.3-.7-.1-.2.1-.3.4-.1.7.6.9.9 2 .9 3.1s-.3 2.2-.9 3.1c-.1.2-.1.5.2.7.2.1.5.1.7-.2.6-1.2 1-2.4 1-3.7z" fill="#e94335"/></svg>