<svg xmlns="http://www.w3.org/2000/svg" viewBox="0 0 20 32" xmlns:v="https://vecta.io/nano"><path d="M13.5 11.3c0 .2-.1.3-.3.3H12c-.2 0-.3-.1-.3-.3 0-.1.1-.2.3-.5l.5-.5c.2-.2.3-.3.3-.4s-.1-.2-.2-.2-.2.1-.3.2c-.1 0-.2.1-.3.1s-.3-.1-.3-.2c0-.3.4-.7.9-.7.4-.1.8.2.9.7 0 .3-.2.6-.4.8l-.5.4h.6c.2 0 .3.1.3.3zm-2.4-2.2v.3.2c.1.5-.3 1.1-.8 1.1H10a1.1 1.1 0 0 1-1.2-.8v-.3-.2c0-.6.3-1.1.9-1.2h.3c.5 0 1 .4 1.1.9zm-.7.3c0-.4-.2-.5-.4-.5-.2-.1-.4.1-.4.5v.3c0 .3.1.5.4.5s.4-.2.4-.5v-.3zm-2.1.5c-.1 0-.2 0-.3.1s-.2.1-.3.1c-.3 0-.4-.2-.4-.6v-.1c0-.4.2-.6.4-.6.1.1.2.1.3.2s.2.1.3.1c.2 0 .3-.1.3-.3a.76.76 0 0 0-.2-.4c-.2-.1-.5-.2-.8-.2h-.3c-.5.1-.9.6-.8 1.2v.2.3c.1.5.6.9 1.1.8.3 0 .5-.1.7-.2s.3-.2.3-.4c0-.1-.1-.3-.3-.2zM20 10c0 5.5-7 22-10 22C7.3 32 0 15.5 0 10S4.5 0 10 0s10 4.5 10 10zm-3.9.6c-.2-.3-.4-.5-.6-.8h0c1.3-1.4 1.2-3.6-.2-4.9a3.39 3.39 0 0 0-4.6 0c-.7-1.1-2.1-1.4-3.2-.7-.7.4-1.1 1.2-1.1 2h-.3c-1.5 0-2.8 1.2-2.8 2.7 0 1.1.6 2 1.5 2.5-.2.4-.2.7-.2 1.1 0 1.6 1.3 2.9 2.9 2.9.9 0 1.7-.4 2.3-1.1 1 1.7 3.3 2.3 5 1.3 1.8-1 2.4-3.3 1.3-5z" fill="#e94335"/></svg>