<svg xmlns="http://www.w3.org/2000/svg" viewBox="0 0 20 32" xmlns:v="https://vecta.io/nano"><path d="M10 0C4.5 0 0 4.5 0 10s7.3 22 10 22c3 0 10-16.5 10-22S15.5 0 10 0zm5.8 14.8c-.1.2-.4.4-.6.3H4.9c-.3 0-.5-.1-.6-.3-.6-1-.9-2.2-.9-3.4a6.7 6.7 0 1 1 13.4 0c-.1 1.3-.4 2.4-1 3.4zm-3.4-7.2h0L11 11.8c.3.3.5.7.5 1.2 0 .3-.1.5-.2.7H8.7c-.1-.2-.2-.5-.2-.7 0-.8.6-1.4 1.4-1.5l1.4-4.3c.1-.2.4-.4.7-.3s.5.4.4.7zM10 6.7a4.91 4.91 0 0 0-4.9 4.9c0 .2-.1.3-.3.3s-.3-.1-.3-.3c0-3 2.5-5.5 5.5-5.5.3 0 .6 0 .9.1.2 0 .3.2.3.4s-.2.3-.4.3c-.3-.1-.5-.2-.8-.2zm5.5 5c0 .2-.2.3-.3.3h0c-.2 0-.3-.2-.3-.3 0-1.5-.7-2.8-1.8-3.8-.1-.1-.1-.3 0-.5.1-.1.3-.1.5 0 1.2 1 1.9 2.6 1.9 4.3z" fill="#e94335"/></svg>