<svg xmlns="http://www.w3.org/2000/svg" viewBox="0 0 20 32" xmlns:v="https://vecta.io/nano"><path d="M6.3 11.4a.68.68 0 0 1-.7.7.68.68 0 0 1-.7-.7.68.68 0 0 1 .7-.7.68.68 0 0 1 .7.7zM6.7 7c-.4 0-.8.3-.8.7a.68.68 0 0 0 .7.7.68.68 0 0 0 .7-.7c0-.4-.2-.7-.6-.7zM10 7a.68.68 0 0 0 .7-.7c0-.4-.3-.8-.7-.8a.68.68 0 0 0-.7.7c0 .4.3.8.7.8zm3.3 1.5a.68.68 0 0 0 .7-.7c0-.4-.3-.8-.7-.8a.68.68 0 0 0-.7.7c0 .4.3.8.7.8zm-2 2.9c-.3-.4-.8-.7-1.3-.7a1.54 1.54 0 0 0-1.5 1.5c0 .3.1.5.2.7h2.6c.1-.1.1-.3.2-.4l3.1-.5c.3-.1.5-.3.5-.6-.1-.3-.3-.5-.6-.5l-3.2.5zM20 10c0 5.5-7 22-10 22C7.3 32 0 15.5 0 10S4.5 0 10 0s10 4.5 10 10zm-3.3.7a6.7 6.7 0 0 0-13.4 0c0 1.2.3 2.3.9 3.3.1.2.4.4.6.3h10.3c.3 0 .5-.1.6-.3.7-1 1-2.2 1-3.3z" fill="#e94335"/></svg>