<?xml version="1.0" encoding="UTF-8" standalone="no"?><!DOCTYPE svg PUBLIC "-//W3C//DTD SVG 1.1//EN" "http://www.w3.org/Graphics/SVG/1.1/DTD/svg11.dtd"><svg width="100%" height="100%" viewBox="0 0 50 43" version="1.1" xmlns="http://www.w3.org/2000/svg" xmlns:xlink="http://www.w3.org/1999/xlink" xml:space="preserve" xmlns:serif="http://www.serif.com/" style="fill-rule:evenodd;clip-rule:evenodd;stroke-linejoin:round;stroke-miterlimit:1.41421;"><rect id="Artboard1" x="0" y="0" width="50" height="42.229" style="fill:none;"/><clipPath id="_clip1"><rect id="Artboard11" serif:id="Artboard1" x="0" y="0" width="50" height="42.229"/></clipPath><g clip-path="url(#_clip1)"><g><path d="M49.397,0.019c0.166,0.058 0.327,0.139 0.434,0.273c0.108,0.135 0.149,0.308 0.169,0.483l0,36.937c-0.032,0.288 -0.123,0.542 -0.468,0.713c-3.913,1.94 -8.232,3.269 -12.651,3.671c-4.887,0.444 -9.869,-0.241 -14.526,-1.761c-0.752,-0.245 -1.498,-0.516 -2.259,-0.739c-4.274,-1.251 -8.819,-1.562 -13.235,-1.024c-1.956,0.238 -3.899,0.651 -5.771,1.245l-0.078,0.025l-0.179,0.035c-0.306,-0.013 -0.609,-0.146 -0.749,-0.422c-0.074,-0.146 -0.065,-0.192 -0.084,-0.351c0,-1.501 0.17,-3.012 0,-4.503l0,-33.826l0.02,-0.172c0.096,-0.276 0.295,-0.518 0.583,-0.584c0.056,-0.012 0.115,-0.013 0.172,-0.019l48.45,0c0.057,0.006 0.115,0.013 0.172,0.019Zm-48.622,0.756c0,11.275 0.05,33.81 0,33.826l0,4.503c0.04,-0.013 0.08,-0.025 0.12,-0.038c6.451,-2.037 13.658,-2.072 20.151,0.01c0.856,0.275 1.707,0.584 2.574,0.842c4.612,1.372 9.502,1.884 14.272,1.289c3.938,-0.491 7.762,-1.722 11.333,-3.495l0,-36.937c-16.15,0 -32.3,0 -48.45,0Z" style="fill:#fff;fill-rule:nonzero;"/><g><path d="M49.225,0.775l0,36.937c-6.319,3.141 -15.606,5.747 -27.459,1.606c-6.425,-2.249 -14.208,-2.392 -20.991,-0.214l0,-38.329l48.45,0Z" style="fill:#407dc0;"/><path d="M49.225,0.775l0,32.434c-6.319,3.141 -15.606,5.747 -27.459,1.606c-6.425,-2.249 -14.208,-2.392 -20.991,-0.214l0,-33.826l48.45,0Z" style="fill:#d61467;"/><path d="M18.097,22.715l-1.639,-2.375c-3.813,2.876 -8.496,0.568 -8.496,-3.913c0,-4.449 5.854,-7.124 9.165,-3.01l0,-3.545c-5.184,-3.011 -12.308,0.233 -12.275,6.655c0.034,6.388 7.392,10.168 13.245,6.188Zm5.315,-0.87l0,-10.535c0,-1.104 0.234,-1.639 0.635,-2.308l-3.779,0l0,12.576c0,0.902 -0.268,1.839 -0.669,2.441l8.696,0l0.836,-2.642c-1.104,0.267 -2.843,0.468 -3.913,0.468l-1.806,0Zm16.883,-4.214l-6.054,0l0,6.388l-3.077,0l0,-15.017l3.077,0l0,6.455l6.054,0l0,-6.455l3.713,0c-0.401,0.769 -0.602,1.438 -0.602,2.508l0,12.509l-3.111,0l0,-6.388Z" style="fill:#fff;"/><path d="M36.379,28.678l1.262,0c0.346,0 0.583,0 0.788,-0.205c0.153,-0.154 0.218,-0.378 0.218,-0.602c0,-0.154 -0.026,-0.397 -0.238,-0.576c-0.198,-0.167 -0.422,-0.173 -0.633,-0.173l-1.397,0l0,1.556Zm0,0.531l0,1.915l-0.582,0l0,-4.521l1.953,0c0.224,0 0.48,0 0.717,0.077c0.532,0.186 0.775,0.679 0.775,1.204c0,0.493 -0.23,1.069 -0.833,1.255c-0.224,0.07 -0.448,0.07 -0.723,0.07l-1.307,0Z" style="fill:#fff;fill-rule:nonzero;"/><path d="M41.516,29.036c-0.653,-0.134 -1.613,-0.351 -1.613,-1.287c0,-0.448 0.243,-0.73 0.416,-0.877c0.403,-0.346 0.896,-0.384 1.21,-0.384c0.32,0 0.807,0.032 1.217,0.333c0.448,0.327 0.538,0.787 0.582,1.063l-0.608,0.038c-0.006,-0.141 -0.025,-0.5 -0.364,-0.749c-0.231,-0.166 -0.52,-0.218 -0.808,-0.218c-0.544,0 -1.024,0.224 -1.024,0.711c0,0.5 0.499,0.615 0.89,0.704l0.499,0.129c0.346,0.083 0.532,0.121 0.711,0.198c0.679,0.282 0.782,0.826 0.782,1.127c0,0.423 -0.173,0.82 -0.577,1.095c-0.435,0.295 -0.954,0.321 -1.229,0.321c-0.41,0 -1.813,-0.065 -1.916,-1.557l0.648,-0.083c0.006,0.173 0.025,0.57 0.364,0.871c0.257,0.224 0.596,0.301 0.929,0.301c0.641,0 1.127,-0.314 1.127,-0.903c0,-0.525 -0.416,-0.666 -0.858,-0.756l-0.378,-0.077Z" style="fill:#fff;fill-rule:nonzero;"/></g></g></g></svg>