<svg viewBox="0 0 512 512" xmlns="http://www.w3.org/2000/svg"><path fill="#333" d="M149.106 512c-33.08 0-66.16-12.59-91.333-37.78C7.4 423.85 7.4 341.915 57.763 291.55L319.834 29.48c39.33-39.34 103.32-39.34 142.66 0 39.33 39.332 39.33 103.327 0 142.657L239.86 394.76c-28.3 28.3-74.35 28.3-102.65 0 -28.3-28.31-28.3-74.35 0-102.649l170.3-170.298c4.68-4.69 12.28-4.69 16.97 0l5.66 5.66c4.68 4.68 4.68 12.28 0 16.97l-170.3 170.29c-15.83 15.82-15.83 41.56 0 57.38 15.82 15.82 41.56 15.82 57.38 0L439.85 149.49c26.851-26.851 26.851-70.55 0-97.394 -26.86-26.851-70.55-26.85-97.4 0L80.37 314.16c-37.89 37.88-37.89 99.51 0 137.4 37.884 37.88 99.52 37.88 137.404 0l217.74-217.74c4.68-4.69 12.28-4.69 16.97 0l5.66 5.66c4.68 4.68 4.68 12.28 0 16.97L240.39 474.19c-25.18 25.18-58.26 37.77-91.334 37.77Z"/></svg>