<svg id="Layer_1" data-name="Layer 1" xmlns="http://www.w3.org/2000/svg" viewBox="0 0 20 20.02"><defs><style>.cls-1{fill:#fff;}</style></defs><title>close</title><path class="cls-1" d="M0.41,20a0.36,0.36,0,0,1-.25-0.61l8.26-8.29a0.36,0.36,0,0,1,.5.5L0.66,19.91A0.36,0.36,0,0,1,.41,20Z" transform="translate(0)"/><path class="cls-1" d="M10.51,10l9.34-9.38a0.36,0.36,0,1,0-.5-0.5L10,9.53,0.66,0.16a0.36,0.36,0,1,0-.5.5L9.7,10.24a0.36,0.36,0,0,0,.1.1l9.54,9.58a0.34,0.34,0,0,0,.49,0,0.36,0.36,0,0,0,0-.51Z" transform="translate(0)"/></svg>