<?xml version="1.0" encoding="UTF-8" standalone="no"?><!DOCTYPE svg PUBLIC "-//W3C//DTD SVG 1.1//EN" "http://www.w3.org/Graphics/SVG/1.1/DTD/svg11.dtd"><svg width="100%" height="100%" viewBox="0 0 16 16" version="1.1" xmlns="http://www.w3.org/2000/svg" xmlns:xlink="http://www.w3.org/1999/xlink" xml:space="preserve" xmlns:serif="http://www.serif.com/" style="fill-rule:evenodd;clip-rule:evenodd;stroke-linejoin:round;stroke-miterlimit:1.41421;"><g><path d="M0.839,15.425c-0.16,-0.01 -0.288,-0.139 -0.298,-0.298c0,-0.099 0,-0.099 0.099,-0.199l6.152,-6.151c0.113,-0.101 0.285,-0.101 0.397,0c0.046,0.035 0.073,0.09 0.073,0.148c0,0.059 -0.027,0.114 -0.073,0.149l-6.152,6.152c-0.099,0.199 -0.099,0.199 -0.198,0.199Z" style="fill:#4d4e4e;fill-rule:nonzero;"/><path d="M8.38,7.983l6.945,-6.946l0.1,-0.099c0.099,-0.099 0,-0.298 -0.1,-0.397c-0.099,-0.099 -0.297,0 -0.397,0.099l-6.945,6.946l-6.946,-6.946l-0.099,0c-0.112,-0.1 -0.284,-0.1 -0.397,0c-0.099,0.1 0,0.298 0.099,0.397l14.388,14.388c0.112,0.1 0.284,0.1 0.397,0c0.1,-0.113 0.1,-0.285 0,-0.397l-7.045,-7.045Z" style="fill:#4d4e4e;fill-rule:nonzero;"/></g></svg>